<?xml version="1.0" standalone="no"?>
<!DOCTYPE svg PUBLIC "-//W3C//DTD SVG 1.1//EN" "http://www.w3.org/Graphics/SVG/1.1/DTD/svg11.dtd" >
<svg xmlns="http://www.w3.org/2000/svg" xmlns:xlink="http://www.w3.org/1999/xlink" version="1.1">
<metadata></metadata>
<defs>
<font id="montserrat" horiz-adv-x="1718" >
<font-face units-per-em="2048" ascent="1638" descent="-410" />
<missing-glyph horiz-adv-x="536" />
<glyph horiz-adv-x="0" />
<glyph unicode="&#xd;" horiz-adv-x="536" />
<glyph horiz-adv-x="0" />
<glyph horiz-adv-x="0" />
<glyph unicode=" "  horiz-adv-x="536" />
<glyph unicode="&#x09;" horiz-adv-x="536" />
<glyph unicode="&#xa0;" horiz-adv-x="536" />
<glyph unicode="!" horiz-adv-x="532" d="M158 96q0 45 30.5 75t77.5 30q45 0 76 -30t31 -75q0 -43 -31 -74.5t-76 -31.5t-76.5 31.5t-31.5 74.5zM180 1434h172l-30 -1004h-113z" />
<glyph unicode="&#x22;" horiz-adv-x="763" d="M141 1434h129l-10 -541h-108zM491 1434h129l-10 -541h-108z" />
<glyph unicode="#" horiz-adv-x="1425" d="M59 389v113h306l53 430h-293v112h307l47 390h113l-49 -390h422l47 390h110l-47 -390h289v-112h-303l-53 -430h290v-113h-305l-47 -389h-110l47 389h-420l-49 -389h-111l47 389h-291zM475 502h422l53 430h-420z" />
<glyph unicode="$" horiz-adv-x="1259" d="M96 174l60 117q72 -70 187.5 -117t242.5 -55v538q-141 35 -235.5 75t-157 117t-62.5 204q0 158 114.5 265t340.5 126v235h102v-233q117 -4 226.5 -38t189.5 -89l-51 -121q-84 53 -178.5 84t-186.5 35v-543q152 -37 248 -74.5t161.5 -115.5t65.5 -205 q0 -158 -120.5 -267.5t-354.5 -121.5v-236h-102v234q-150 8 -282 58t-208 128zM281 1057q0 -107 78.5 -162t226.5 -94v512q-152 -12 -228.5 -83t-76.5 -173zM688 119q162 12 244 79.5t82 172.5q0 111 -84 166t-242 94v-512z" />
<glyph unicode="%" horiz-adv-x="1697" d="M86 1055q0 174 89 281.5t235 107.5q143 0 233 -106.5t90 -282.5t-90 -282.5t-233 -106.5q-146 0 -235 107.5t-89 281.5zM188 1055q0 -137 59.5 -217t162.5 -80q100 0 160.5 78.5t60.5 218.5q0 139 -60.5 218t-160.5 79q-102 0 -162 -80t-60 -217zM299 0l979 1434h121 l-979 -1434h-121zM965 379q0 174 90 281.5t233 107.5q145 0 234.5 -107.5t89.5 -281.5t-89 -281.5t-235 -107.5q-143 0 -233 107.5t-90 281.5zM1067 379q0 -139 60.5 -218t160.5 -79q103 0 162 80t59 217t-59 217t-162 80q-100 0 -160.5 -79t-60.5 -218z" />
<glyph unicode="&#x26;" horiz-adv-x="1370" d="M100 352q0 129 82 231.5t279 215.5q-102 106 -141 181t-39 159q0 137 98 221t264 84q154 0 244 -76t90 -209q0 -106 -71.5 -191t-248.5 -188l394 -405q66 117 96 276l119 -37q-39 -193 -127 -329l204 -211l-83 -97l-199 205q-182 -195 -479 -194q-139 0 -249 46 t-171.5 129t-61.5 189zM244 367q0 -117 95 -187.5t251 -70.5q238 -1 385 161l-432 445q-170 -96 -234.5 -174t-64.5 -174zM416 1141q0 -63 32.5 -120.5t129.5 -156.5q156 90 215 153.5t59 139.5q0 82 -55.5 130t-153.5 48q-106 0 -166.5 -53t-60.5 -141z" />
<glyph unicode="'" horiz-adv-x="413" d="M141 1434h129l-10 -541h-108z" />
<glyph unicode="(" horiz-adv-x="673" d="M213 561q0 281 61.5 527.5t176.5 431.5h139q-121 -207 -177.5 -444.5t-56.5 -514.5q0 -276 56.5 -513.5t177.5 -444.5h-139q-115 188 -176.5 433t-61.5 525z" />
<glyph unicode=")" horiz-adv-x="673" d="M82 -397q121 207 178 443.5t57 514.5q0 279 -57 515.5t-178 443.5h139q115 -184 177.5 -431t62.5 -528t-61.5 -526.5t-178.5 -431.5h-139z" />
<glyph unicode="*" horiz-adv-x="790" d="M45 1006l256 143l-256 143l49 88l256 -151l-2 291h94v-291l256 151l47 -88l-253 -143l253 -143l-47 -86l-256 149v-291h-94l2 291l-256 -149z" />
<glyph unicode="+" horiz-adv-x="1177" d="M143 655v121h381v375h129v-375h381v-121h-381v-372h-129v372h-381z" />
<glyph unicode="," horiz-adv-x="434" d="M111 102q0 47 30.5 79t77.5 32t78 -31.5t31 -79.5q0 -25 -7.5 -53.5t-21.5 -64.5l-86 -283h-98l69 297q-33 10 -53 37.5t-20 66.5z" />
<glyph unicode="-" horiz-adv-x="782" d="M123 492v126h536v-126h-536z" />
<glyph unicode="." horiz-adv-x="434" d="M109 102q0 47 31.5 79t76.5 32t78 -31.5t33 -79.5q0 -47 -33 -79.5t-78 -32.5t-76.5 32.5t-31.5 79.5z" />
<glyph unicode="/" horiz-adv-x="686" d="M-51 -205l676 1929h133l-676 -1929h-133z" />
<glyph unicode="0" horiz-adv-x="1355" d="M106 717q0 223 73 388t203 253t296 88t296 -88t203.5 -253t73.5 -388t-73.5 -388t-203.5 -253t-296 -88t-296 88t-203 253t-73 388zM256 717q0 -188 53 -321.5t148.5 -203t220.5 -69.5t220 69.5t148.5 202.5t53.5 322q0 188 -53.5 321t-148.5 203t-220 70t-220.5 -70 t-148.5 -203t-53 -321z" />
<glyph unicode="1" horiz-adv-x="739" d="M18 1303v131h486v-1434h-148v1303h-338z" />
<glyph unicode="2" horiz-adv-x="1163" d="M37 1241q84 98 214 151.5t294 53.5q219 0 347 -103.5t128 -283.5q0 -111 -49 -213.5t-187 -235.5l-487 -479h788v-131h-1005v104l596 584q113 111 152.5 192t39.5 162q0 127 -87 198t-249 71q-252 0 -391 -160z" />
<glyph unicode="3" horiz-adv-x="1155" d="M18 172l72 117q72 -74 190.5 -120t254.5 -46q176 0 272 76.5t96 212.5q0 133 -96 208.5t-291 75.5h-102v109l397 498h-733v131h921v-105l-405 -510q225 -12 343 -121.5t118 -285.5q0 -123 -59.5 -218.5t-176.5 -150.5t-284 -55q-156 0 -294.5 50t-222.5 134z" />
<glyph unicode="4" horiz-adv-x="1353" d="M82 377v106l760 951h164l-734 -926h623v332h143v-332h287v-131h-287v-377h-147v377h-809z" />
<glyph unicode="5" horiz-adv-x="1159" d="M45 172l72 117q72 -74 188.5 -120t251.5 -46q178 0 275.5 80t97.5 213q0 147 -109.5 223t-369.5 76h-306l74 719h785v-131h-656l-49 -457h184q312 0 454 -111.5t142 -312.5q0 -125 -58 -223.5t-175 -154.5t-287 -56q-154 0 -292 50t-222 134z" />
<glyph unicode="6" horiz-adv-x="1247" d="M106 705q0 240 82 405.5t229.5 250.5t344.5 85q213 0 340 -78l-60 -119q-102 68 -278 68q-238 0 -373 -150.5t-135 -437.5q0 -51 6 -117q53 117 170 181.5t268 64.5q142 0 251.5 -53t171 -150.5t61.5 -226.5q0 -131 -63.5 -231.5t-175 -154.5t-251.5 -54 q-285 0 -436.5 187t-151.5 530zM309 420q0 -82 44 -151.5t130 -112.5t205 -43q156 0 253 85t97 226t-97 225t-263 84q-109 0 -192 -41t-130 -112.5t-47 -159.5z" />
<glyph unicode="7" horiz-adv-x="1206" d="M66 1034v400h1052v-105l-600 -1329h-160l590 1303h-737v-269h-145z" />
<glyph unicode="8" horiz-adv-x="1306" d="M98 399q0 129 71 218.5t206 134.5q-111 43 -168 123.5t-57 191.5q0 174 136 276.5t365 102.5q152 0 265.5 -46t177 -132t63.5 -201q0 -111 -59.5 -191.5t-169.5 -123.5q135 -45 207.5 -135.5t72.5 -217.5q0 -125 -67.5 -218t-193.5 -143t-296 -50q-258 0 -405.5 110.5 t-147.5 300.5zM248 401q0 -135 106.5 -211.5t296.5 -76.5q191 0 298.5 77.5t107.5 210.5t-107.5 210t-298.5 77q-188 0 -295.5 -76.5t-107.5 -210.5zM297 1063q0 -119 94 -188.5t260 -69.5t261.5 69.5t95.5 186.5q0 121 -97.5 190.5t-259.5 69.5q-164 0 -259 -69.5 t-95 -188.5z" />
<glyph unicode="9" horiz-adv-x="1247" d="M63 1006q0 131 63.5 231t175.5 154.5t251 54.5q285 0 436.5 -187.5t151.5 -529.5q0 -240 -82 -405.5t-229.5 -250.5t-344.5 -85q-213 0 -340 78l60 118q102 -68 278 -67q238 0 373 150.5t135 437.5q0 53 -6 116q-53 -117 -170 -181.5t-268 -64.5q-141 0 -251 53.5 t-171.5 151t-61.5 226.5zM209 1010q0 -141 97 -225.5t263 -84.5q109 0 192 41t130 113t47 160q0 82 -44 151.5t-130 112.5t-205 43q-156 0 -253 -85t-97 -226z" />
<glyph unicode=":" horiz-adv-x="434" d="M109 102q0 47 31.5 79t76.5 32t78 -31.5t33 -79.5q0 -47 -33 -79.5t-78 -32.5t-76.5 32.5t-31.5 79.5zM109 974q0 47 31.5 79t76.5 32t78 -31.5t33 -79.5q0 -47 -33 -79.5t-78 -32.5t-76.5 32.5t-31.5 79.5z" />
<glyph unicode=";" horiz-adv-x="434" d="M109 974q0 47 31.5 79t76.5 32t78 -31.5t33 -79.5q0 -47 -33 -79.5t-78 -32.5t-76.5 32.5t-31.5 79.5zM111 102q0 47 30.5 79t77.5 32t78 -31.5t31 -79.5q0 -25 -7.5 -53.5t-21.5 -64.5l-86 -283h-98l69 297q-33 10 -53 37.5t-20 66.5z" />
<glyph unicode="&#x3c;" horiz-adv-x="1177" d="M143 649v135l891 359v-129l-753 -297l753 -297v-127z" />
<glyph unicode="=" horiz-adv-x="1177" d="M143 420v121h891v-121h-891zM143 893v121h891v-121h-891z" />
<glyph unicode="&#x3e;" horiz-adv-x="1177" d="M143 293v127l754 297l-754 297v129l891 -359v-135z" />
<glyph unicode="?" horiz-adv-x="1161" d="M27 1233q174 213 510 213q215 0 343 -96.5t128 -259.5q0 -84 -28 -148.5t-68 -110t-105 -104.5q-88 -80 -131 -142.5t-43 -154.5h-152q0 84 28 147.5t68.5 108.5t106.5 102q88 78 130 136.5t42 142.5q0 113 -88 181.5t-242 68.5q-254 0 -391 -166zM451 96q0 45 30.5 75 t75.5 30q47 0 78 -30t31 -75q0 -43 -32 -74.5t-77 -31.5t-75.5 31.5t-30.5 74.5z" />
<glyph unicode="@" horiz-adv-x="2115" d="M106 520q0 270 121 480t339 328t497 118q274 0 490 -113.5t337 -319.5t121 -470q0 -260 -90 -406.5t-250 -146.5q-100 0 -162.5 59.5t-68.5 163.5q-61 -106 -168 -164.5t-242 -58.5q-143 0 -259 68.5t-182.5 189.5t-66.5 272q0 152 66.5 271.5t182.5 187.5t259 68 q131 0 236.5 -56.5t169.5 -159.5v207h133v-776q0 -82 34.5 -119t92.5 -37q96 0 152.5 115t56.5 320q0 238 -106.5 419t-298 281t-437.5 100q-248 0 -439.5 -103t-298 -290.5t-106.5 -427.5t105.5 -428t295 -292.5t435.5 -104.5q96 0 201.5 22.5t191.5 67.5l35 -100 q-88 -45 -204 -70t-224 -25q-279 0 -494 119t-335 331t-120 480zM657 520q0 -121 50.5 -214t139.5 -145t202 -52q110 0 198 51t139.5 144t51.5 216q0 121 -51.5 214t-139.5 143.5t-198 50.5q-113 0 -202 -51.5t-139.5 -143.5t-50.5 -213z" />
<glyph unicode="A" horiz-adv-x="1468" d="M4 0l655 1434h150l655 -1434h-159l-172 383h-799l-172 -383h-158zM389 506h688l-344 770z" />
<glyph unicode="B" horiz-adv-x="1544" d="M233 0v1434h619q240 0 372 -96.5t132 -272.5q0 -119 -58.5 -202t-160.5 -124q141 -30 218 -121.5t77 -234.5q0 -184 -136.5 -283.5t-402.5 -99.5h-660zM385 125h506q192 0 290.5 65.5t98.5 204.5q0 268 -389 269h-506v-539zM385 788h457q174 0 268 67t94 194t-94 193.5 t-268 66.5h-457v-521z" />
<glyph unicode="C" horiz-adv-x="1472" d="M106 717q0 207 97.5 373.5t269.5 261t385 94.5q160 0 295 -53.5t229 -155.5l-96 -96q-168 170 -424 170q-170 0 -309 -78t-218 -213t-79 -303t79 -303t218 -213t309 -78q258 0 424 172l96 -96q-94 -102 -230 -156.5t-296 -54.5q-213 0 -384 94t-268.5 261t-97.5 374z" />
<glyph unicode="D" horiz-adv-x="1691" d="M233 0v1434h584q227 0 401.5 -91.5t270.5 -254t96 -371.5t-96 -372t-270.5 -254t-401.5 -91h-584zM385 131h424q188 0 329.5 75t219.5 207t78 304t-78 304t-219.5 207t-329.5 75h-424v-1172z" />
<glyph unicode="E" horiz-adv-x="1370" d="M233 0v1434h984v-131h-832v-510h741v-129h-741v-533h862v-131h-1014z" />
<glyph unicode="F" horiz-adv-x="1296" d="M233 0v1434h984v-131h-832v-564h741v-131h-741v-608h-152z" />
<glyph unicode="G" horiz-adv-x="1583" d="M106 717q0 207 98.5 373.5t270.5 261t389 94.5q164 0 301.5 -52.5t231.5 -154.5l-94 -96q-170 168 -433 168q-174 0 -314 -77t-220 -213t-80 -304t80 -303t219 -213t313 -78q221 0 375 110v484h146v-547q-100 -88 -237.5 -135t-289.5 -47q-215 0 -387 94t-270.5 261 t-98.5 374z" />
<glyph unicode="H" horiz-adv-x="1665" d="M233 0v1434h152v-639h897v639h150v-1434h-150v662h-897v-662h-152z" />
<glyph unicode="I" horiz-adv-x="618" d="M233 0v1434h152v-1434h-152z" />
<glyph unicode="J" horiz-adv-x="1026" d="M-10 193l90 102q119 -176 309 -176q266 0 266 315v869h-524v131h674v-994q0 -225 -105.5 -338.5t-312.5 -113.5q-123 0 -227.5 53t-169.5 152z" />
<glyph unicode="K" horiz-adv-x="1456" d="M233 0v1434h152v-867l842 867h174l-621 -650l664 -784h-180l-586 674l-293 -297v-377h-152z" />
<glyph unicode="L" horiz-adv-x="1206" d="M233 0v1434h152v-1303h803v-131h-955z" />
<glyph unicode="M" horiz-adv-x="1955" d="M233 0v1434h125l623 -1063l616 1063h125v-1434h-145v1147l-563 -965h-72l-563 959v-1141h-146z" />
<glyph unicode="N" horiz-adv-x="1665" d="M233 0v1434h125l924 -1164v1164h150v-1434h-125l-922 1163v-1163h-152z" />
<glyph unicode="O" d="M106 717q0 207 97.5 372.5t270.5 261t386 95.5t384 -94.5t269.5 -261t98.5 -373.5t-98.5 -374t-269.5 -261t-384 -94t-386 95t-270.5 261t-97.5 373zM256 717q0 -168 79 -304.5t217 -213t308 -76.5t307.5 76.5t215 213t77.5 304.5t-77.5 304t-215 213t-307.5 77t-308 -77 t-217 -213t-79 -304z" />
<glyph unicode="P" horiz-adv-x="1470" d="M233 0v1434h537q274 0 430 -131.5t156 -360.5t-156 -359t-430 -130h-385v-453h-152zM385 586h381q213 0 325.5 93t112.5 263q0 174 -112.5 267.5t-325.5 93.5h-381v-717z" />
<glyph unicode="Q" d="M106 717q0 207 97.5 372.5t270.5 261t386 95.5t384 -94.5t269.5 -261t98.5 -373.5q0 -180 -75 -330.5t-209 -251t-308 -133.5q158 -166 311 -166q160 0 273 131l73 -88q-66 -80 -154.5 -122t-193.5 -42q-127 0 -240.5 62.5t-254.5 210.5q-207 6 -373 102t-260.5 260 t-94.5 367zM256 717q0 -168 79 -303t217 -213t308 -78t307.5 78t215 213t77.5 303t-77.5 303t-215 213t-307.5 78t-308 -78t-217 -213t-79 -303z" />
<glyph unicode="R" horiz-adv-x="1480" d="M233 0v1434h537q274 0 430 -131.5t156 -360.5q0 -168 -85 -283.5t-243 -166.5l350 -492h-166l-327 461q-55 -6 -115 -6h-385v-455h-152zM385 584h381q213 0 325.5 94t112.5 264q0 174 -112.5 267.5t-325.5 93.5h-381v-719z" />
<glyph unicode="S" horiz-adv-x="1259" d="M96 174l60 117q78 -78 207 -126t266 -48q193 0 289 70.5t96 183.5q0 86 -52.5 137t-128 78.5t-210.5 60.5q-162 41 -258.5 79t-165 116t-68.5 211q0 109 57.5 197.5t176 142t294.5 53.5q123 0 241 -34t204 -93l-51 -121q-90 59 -192.5 89t-201.5 30q-188 0 -283 -73 t-95 -187q0 -86 52 -138.5t131 -80t212 -60.5q158 -39 255 -76.5t164.5 -114.5t67.5 -208q0 -109 -58 -198t-179 -141t-297 -52q-160 0 -306.5 51t-226.5 135z" />
<glyph unicode="T" horiz-adv-x="1175" d="M8 1303v131h1159v-131h-503v-1303h-152v1303h-504z" />
<glyph unicode="U" horiz-adv-x="1622" d="M221 612v822h152v-816q0 -250 112.5 -372.5t325.5 -122.5q215 0 327.5 123t112.5 372v816h148v-822q0 -305 -154.5 -464.5t-433.5 -159.5t-434.5 159.5t-155.5 464.5z" />
<glyph unicode="V" horiz-adv-x="1429" d="M6 1434h164l549 -1246l553 1246h153l-634 -1434h-150z" />
<glyph unicode="W" horiz-adv-x="2275" d="M76 1434h155l414 -1233l428 1233h141l422 -1239l420 1239h146l-484 -1434h-159l-420 1223l-422 -1223h-158z" />
<glyph unicode="X" horiz-adv-x="1343" d="M35 0l545 737l-510 697h174l432 -586l430 586h164l-508 -693l547 -741h-176l-463 631l-461 -631h-174z" />
<glyph unicode="Y" horiz-adv-x="1300" d="M2 1434h162l491 -805l492 805h151l-573 -938v-496h-150v496z" />
<glyph unicode="Z" horiz-adv-x="1333" d="M92 0v104l950 1199h-936v131h1137v-105l-948 -1198h973v-131h-1176z" />
<glyph unicode="[" horiz-adv-x="651" d="M233 -397v1917h375v-121h-229v-1675h229v-121h-375z" />
<glyph unicode="\" horiz-adv-x="686" d="M-72 1724h133l676 -1929h-133z" />
<glyph unicode="]" horiz-adv-x="651" d="M43 -276h229v1675h-229v121h375v-1917h-375v121z" />
<glyph unicode="^" horiz-adv-x="1179" d="M170 293l358 848h125l357 -848h-121l-299 723l-299 -723h-121z" />
<glyph unicode="_" horiz-adv-x="1024" d="M0 0h1024v-98h-1024v98z" />
<glyph unicode="`" horiz-adv-x="1228" d="M273 1497h194l281 -254h-144z" />
<glyph unicode="a" horiz-adv-x="1208" d="M113 303q0 137 99 221t316 84h342v66q0 139 -77.5 211.5t-227.5 72.5q-102 0 -196.5 -33.5t-161.5 -93.5l-66 109q82 70 197 107.5t242 37.5q211 0 323.5 -105.5t112.5 -311.5v-668h-139v168q-49 -84 -144.5 -131t-226.5 -47q-180 0 -286.5 86t-106.5 227zM256 307 q0 -94 71.5 -148.5t200.5 -54.5q123 0 211 56.5t131 163.5v176h-338q-276 0 -276 -193z" />
<glyph unicode="b" horiz-adv-x="1388" d="M203 0v1520h145v-648q68 104 173.5 158.5t236.5 54.5q151 0 274 -68.5t192.5 -193.5t69.5 -284q0 -160 -69.5 -285t-192.5 -194.5t-274 -69.5q-135 0 -242.5 57t-173.5 166v-213h-139zM346 539q0 -123 52.5 -219.5t143.5 -148.5t206 -52q112 0 204 52t144.5 148.5 t52.5 219.5t-52.5 219t-144.5 148t-204 52q-115 0 -206 -52t-143.5 -148t-52.5 -219z" />
<glyph unicode="c" horiz-adv-x="1153" d="M94 539q0 158 72 282.5t197.5 194t285.5 69.5q139 0 249 -54t173 -159l-108 -73q-53 80 -135.5 119.5t-178.5 39.5q-117 0 -210 -52t-145 -148t-52 -219q0 -125 52 -220.5t145 -147.5t210 -52q96 0 178 39t136 118l108 -73q-63 -104 -174 -158.5t-248 -54.5 q-160 0 -285.5 69.5t-197.5 195.5t-72 284z" />
<glyph unicode="d" horiz-adv-x="1388" d="M94 539q0 160 69.5 284.5t192.5 193t275 68.5q131 0 236.5 -54t172.5 -159v648h146v-1520h-139v213q-66 -109 -173.5 -166t-242.5 -57q-152 0 -275 69.5t-192.5 194.5t-69.5 285zM242 539q0 -123 52 -219.5t143 -148.5t206 -52q113 0 204 52t143 148.5t52 219.5t-52 219 t-143 148t-204 52q-115 0 -206 -52t-143 -148t-52 -219z" />
<glyph unicode="e" horiz-adv-x="1236" d="M94 539q0 158 68.5 282.5t188.5 194t270 69.5t268.5 -69.5t186 -193.5t67.5 -283l-2 -45h-901q12 -168 128.5 -271.5t295.5 -103.5q100 0 184 35.5t145 105.5l82 -94q-72 -86 -179.5 -131t-236.5 -45q-166 0 -293.5 70.5t-199.5 195.5t-72 283zM240 602h764 q-14 160 -120 259.5t-263 99.5q-156 0 -261.5 -99.5t-119.5 -259.5z" />
<glyph unicode="f" horiz-adv-x="694" d="M35 954v123h192v133q0 147 85 233.5t241 86.5q61 0 118.5 -17.5t96.5 -50.5l-49 -108q-63 53 -160 53q-94 0 -142 -51t-48 -152v-127h331v-123h-327v-954h-146v954h-192z" />
<glyph unicode="g" horiz-adv-x="1404" d="M94 565q0 152 71 270.5t193.5 184t276.5 65.5q137 0 247.5 -55t178.5 -160v207h139v-946q0 -274 -134 -406.5t-404 -132.5q-150 0 -284 44.5t-218 121.5l73 111q78 -70 190 -109t234 -39q205 0 301.5 95.5t96.5 296.5v137q-68 -102 -177.5 -155.5t-242.5 -53.5 q-152 0 -275.5 66.5t-194.5 186.5t-71 271zM242 565q0 -115 52 -205t145 -140t210 -50t211 50t146.5 140.5t52.5 204.5q0 115 -52.5 204t-145.5 139t-212 50q-117 0 -210 -49t-145 -139t-52 -205z" />
<glyph unicode="h" horiz-adv-x="1386" d="M203 0v1520h145v-631q59 94 163.5 145t240.5 51q202 0 322 -117.5t120 -342.5v-625h-145v610q0 168 -84 256t-240 88q-174 0 -275.5 -103t-101.5 -286v-565h-145z" />
<glyph unicode="i" horiz-adv-x="550" d="M170 1417q0 41 31 72t76 31t75.5 -30t30.5 -71q0 -45 -30.5 -75.5t-75.5 -30.5t-76 30.5t-31 73.5zM203 0v1077h145v-1077h-145z" />
<glyph unicode="j" horiz-adv-x="561" d="M-184 -338l51 111q63 -55 168 -56q86 0 132 51.5t46 151.5v1157h145v-1157q0 -152 -81.5 -240t-233.5 -88q-68 0 -128 17.5t-99 52.5zM180 1419q0 41 31 72t76 31t75.5 -30t30.5 -71q0 -45 -30.5 -75.5t-75.5 -30.5t-76 30.5t-31 73.5z" />
<glyph unicode="k" horiz-adv-x="1230" d="M203 0v1520h145v-1031l643 588h180l-460 -440l503 -637h-178l-434 541l-254 -234v-307h-145z" />
<glyph unicode="l" horiz-adv-x="550" d="M203 0v1520h145v-1520h-145z" />
<glyph unicode="m" horiz-adv-x="2172" d="M203 0v1077h139v-196q57 98 159.5 151t235.5 53q135 0 234.5 -57t148.5 -170q59 106 171 166.5t255 60.5q203 0 318.5 -116.5t115.5 -343.5v-625h-145v610q0 168 -81 256t-228 88q-168 0 -264.5 -103t-96.5 -286v-565h-145v610q0 168 -81 256t-230 88q-166 0 -263.5 -103 t-97.5 -286v-565h-145z" />
<glyph unicode="n" horiz-adv-x="1386" d="M203 0v1077h139v-198q59 98 164.5 152t245.5 54q202 0 322 -117.5t120 -342.5v-625h-145v610q0 168 -84 256t-240 88q-174 0 -275.5 -103t-101.5 -286v-565h-145z" />
<glyph unicode="o" horiz-adv-x="1284" d="M94 539q0 158 72 282.5t196.5 194t280.5 69.5t281 -69.5t195.5 -194.5t70.5 -282q0 -158 -70.5 -283t-195.5 -195.5t-281 -70.5t-280.5 70.5t-196.5 195.5t-72 283zM242 539q0 -123 52 -219.5t143 -148.5t206 -52t206 52t142 148.5t51 219.5t-51 219t-142 148t-206 52 t-206 -52t-143 -148t-52 -219z" />
<glyph unicode="p" horiz-adv-x="1388" d="M203 -397v1474h139v-213q66 106 173.5 163.5t242.5 57.5q151 0 274 -68.5t192.5 -193.5t69.5 -284q0 -162 -69.5 -287t-191.5 -193.5t-275 -68.5q-131 0 -236.5 54t-173.5 159v-600h-145zM346 539q0 -123 52.5 -219.5t143.5 -148.5t206 -52q112 0 204 52t144.5 148.5 t52.5 219.5t-52.5 218t-144.5 148t-204 53q-115 0 -206 -53t-143.5 -148t-52.5 -218z" />
<glyph unicode="q" horiz-adv-x="1388" d="M94 539q0 160 69.5 284.5t192.5 193t275 68.5q135 0 242.5 -57t173.5 -164v213h139v-1474h-146v600q-68 -104 -173 -158.5t-236 -54.5q-154 0 -276 68.5t-191.5 193.5t-69.5 287zM242 539q0 -123 52 -219.5t143 -148.5t206 -52q113 0 204 52t143 148.5t52 219.5t-52 218 t-143 148t-204 53q-115 0 -206 -53t-143 -148t-52 -218z" />
<glyph unicode="r" horiz-adv-x="821" d="M203 0v1077h139v-211q51 109 152.5 164t250.5 55v-141l-34 2q-170 0 -266.5 -104.5t-96.5 -292.5v-549h-145z" />
<glyph unicode="s" horiz-adv-x="1001" d="M53 123l66 115q68 -53 170 -87t213 -34q147 0 218 46t71 130q0 59 -39 93t-98.5 51.5t-157.5 33.5q-131 25 -211 50.5t-136.5 87t-56.5 169.5q0 135 112.5 221t313.5 86q104 0 208.5 -27.5t172.5 -72.5l-63 -117q-133 92 -318 93q-139 0 -209.5 -49.5t-70.5 -129.5 q0 -61 39.5 -98t99 -54.5t164.5 -35.5q129 -25 206.5 -49.5t133 -84t55.5 -163.5q0 -141 -118 -224t-326 -83q-132 0 -251.5 38t-187.5 95z" />
<glyph unicode="t" horiz-adv-x="831" d="M35 954v123h192v236h146v-236h327v-123h-327v-643q0 -96 48 -146t138 -50q45 0 87 14t73 41l51 -104q-41 -37 -101.5 -56.5t-125.5 -19.5q-152 0 -234 82t-82 231v651h-192z" />
<glyph unicode="u" horiz-adv-x="1378" d="M193 453v624h145v-610q0 -170 84 -258t240 -88q170 0 268 103.5t98 287.5v565h146v-1077h-140v197q-57 -98 -157.5 -152.5t-229.5 -54.5q-211 0 -332.5 117.5t-121.5 345.5z" />
<glyph unicode="v" horiz-adv-x="1110" d="M2 1077h152l403 -917l408 917h143l-479 -1077h-150z" />
<glyph unicode="w" horiz-adv-x="1800" d="M16 1077h140l338 -915l346 915h125l344 -915l342 915h133l-408 -1077h-137l-340 883l-340 -883h-137z" />
<glyph unicode="x" horiz-adv-x="1093" d="M39 0l426 553l-406 524h164l324 -422l323 422h160l-405 -524l430 -553h-166l-342 451l-344 -451h-164z" />
<glyph unicode="y" horiz-adv-x="1110" d="M-51 -309l67 108q82 -82 197 -82q74 0 126 41t97 140l47 104l-481 1075h152l405 -915l406 915h143l-539 -1206q-66 -152 -151.5 -215.5t-206.5 -63.5q-78 0 -145.5 25t-116.5 74z" />
<glyph unicode="z" horiz-adv-x="1046" d="M86 0v96l678 858h-666v123h852v-96l-678 -860h691v-121h-877z" />
<glyph unicode="{" horiz-adv-x="684" d="M123 500v123h70q92 0 92 104v520q0 272 280 273h76v-121h-55q-156 0 -156 -164v-506q0 -76 -22.5 -112.5t-73.5 -55.5q51 -18 73.5 -55t22.5 -113v-506q0 -164 156 -163h55v-121h-76q-281 0 -280 272v520q0 104 -92 105h-70z" />
<glyph unicode="|" horiz-adv-x="604" d="M233 -397v1917h136v-1917h-136z" />
<glyph unicode="}" horiz-adv-x="684" d="M43 -276h55q156 0 156 163v506q0 76 22.5 113t73.5 55q-51 18 -73.5 55t-22.5 113v506q0 164 -156 164h-55v121h78q279 0 278 -273v-520q0 -104 93 -104h69v-123h-69q-92 0 -93 -105v-520q0 -272 -278 -272h-78v121z" />
<glyph unicode="~" horiz-adv-x="1177" d="M127 569q4 150 72.5 230t181.5 80q70 0 121 -30t121 -87q53 -47 90 -69.5t80 -22.5q72 0 113.5 53t45.5 143h99q-4 -150 -73 -229.5t-181 -79.5q-70 0 -121 29.5t-121 87.5q-55 47 -91 68.5t-79 21.5q-72 0 -114 -52.5t-46 -142.5h-98z" />
<glyph unicode="&#xa2;" horiz-adv-x="1153" d="M94 539q0 147 62.5 266t174 191.5t255.5 86.5v240h100v-238q127 -8 226.5 -62t158.5 -151l-108 -73q-47 72 -119 111.5t-158 45.5v-835q86 6 157.5 45t119.5 110l108 -73q-59 -96 -159.5 -150.5t-225.5 -60.5v-238h-100v238q-143 14 -255 88t-174.5 192.5t-62.5 266.5z M242 539q0 -172 95 -284t249 -132v831q-154 -20 -249 -132.5t-95 -282.5z" />
<glyph unicode="&#xa3;" horiz-adv-x="1304" d="M61 0v131h232v535h-232v102h232v172q0 233 147.5 369.5t421.5 136.5q252 0 410 -109l-55 -125q-135 98 -367 99q-203 0 -305.5 -95.5t-102.5 -275.5v-172h568v-102h-568v-535h803v-131h-1184z" />
<glyph unicode="&#xa5;" horiz-adv-x="1423" d="M2 1434h160l553 -748l551 748h155l-583 -795h399v-90h-451v-193h451v-90h-451v-266h-149v266h-451v90h451v193h-451v90h400z" />
<glyph unicode="&#xa8;" horiz-adv-x="1228" d="M344 1378q0 37 25.5 62.5t62.5 25.5q35 0 61.5 -25.5t26.5 -62.5t-25.5 -62.5t-62.5 -25.5t-62.5 24.5t-25.5 63.5zM709 1378q0 37 26.5 62.5t61.5 25.5q37 0 62.5 -25.5t25.5 -62.5q0 -39 -25.5 -63.5t-62.5 -24.5t-62.5 25.5t-25.5 62.5z" />
<glyph unicode="&#xa9;" horiz-adv-x="1656" d="M106 717q0 199 95.5 364.5t261.5 262t368 96.5q203 0 368 -94.5t259 -259t94 -365.5t-96 -368t-262 -263t-367 -96q-200 0 -365 96t-260.5 262t-95.5 365zM182 717q0 -178 85 -326.5t232.5 -234.5t327.5 -86q181 0 328.5 87t233.5 235.5t86 328.5t-84 326.5t-230.5 231.5 t-329.5 85q-182 0 -330.5 -86t-233.5 -234.5t-85 -326.5zM420 717q0 123 55 220t152.5 151.5t218.5 54.5q104 0 189 -42t136 -116l-88 -65q-43 59 -104 87.5t-135 28.5q-133 0 -220 -88t-87 -231t87 -231.5t220 -88.5q74 0 135 29t104 88l88 -63q-51 -76 -136 -118t-189 -42 q-121 0 -218.5 54t-152.5 151.5t-55 220.5z" />
<glyph unicode="&#xab;" horiz-adv-x="976" d="M102 539l297 389h136l-291 -389l291 -387h-136zM467 539l297 389h136l-291 -389l291 -387h-136z" />
<glyph unicode="&#xad;" horiz-adv-x="782" d="M123 492v126h536v-126h-536z" />
<glyph unicode="&#xae;" horiz-adv-x="1656" d="M106 717q0 199 95.5 364.5t261.5 262t368 96.5q203 0 368 -94.5t259 -259t94 -365.5t-96 -368t-262 -263t-367 -96t-365.5 96t-260 262t-95.5 365zM182 717q0 -178 85 -326.5t232.5 -234.5t327.5 -86q181 0 328.5 87t233.5 235.5t86 328.5t-84 326.5t-230.5 231.5 t-329.5 85q-182 0 -330.5 -86t-233.5 -234.5t-85 -326.5zM547 303v827h319q152 0 240 -73.5t88 -200.5q0 -94 -48 -160.5t-136 -97.5l192 -295h-110l-179 277q-16 -2 -47 -2h-213v-275h-106zM651 668h209q109 0 169.5 49t60.5 139q0 88 -60.5 136t-169.5 48h-209v-372z" />
<glyph unicode="&#xb4;" horiz-adv-x="1228" d="M481 1243l281 254h195l-332 -254h-144z" />
<glyph unicode="&#xb8;" horiz-adv-x="1228" d="M398 -403l34 77q59 -39 135 -39q61 0 94 25t33 72q0 43 -31.5 68.5t-95.5 25.5h-47l50 186h88l-31 -118q84 -8 129 -52.5t45 -113.5q0 -82 -63.5 -130.5t-167.5 -48.5q-100 1 -172 48z" />
<glyph unicode="&#xbb;" horiz-adv-x="976" d="M78 152l291 387l-291 389h135l297 -389l-297 -387h-135zM443 152l291 387l-291 389h135l297 -389l-297 -387h-135z" />
<glyph unicode="&#xc0;" horiz-adv-x="1468" d="M4 0l655 1434h150l655 -1434h-159l-172 383h-799l-172 -383h-158zM389 506h688l-344 770zM394 1804h194l281 -254h-144z" />
<glyph unicode="&#xc1;" horiz-adv-x="1468" d="M4 0l655 1434h150l655 -1434h-159l-172 383h-799l-172 -383h-158zM389 506h688l-344 770zM602 1550l281 254h195l-332 -254h-144z" />
<glyph unicode="&#xc2;" horiz-adv-x="1468" d="M4 0l655 1434h150l655 -1434h-159l-172 383h-799l-172 -383h-158zM389 506h688l-344 770zM398 1550l264 254h147l265 -254h-136l-202 170l-203 -170h-135z" />
<glyph unicode="&#xc3;" horiz-adv-x="1468" d="M4 0l655 1434h150l655 -1434h-159l-172 383h-799l-172 -383h-158zM389 506h688l-344 770zM412 1571q4 102 53 163.5t131 61.5q47 0 83 -20.5t83 -61.5q33 -29 55.5 -43t47.5 -14q45 0 73.5 33.5t32.5 93.5h88q-4 -100 -53 -160.5t-131 -60.5q-47 0 -84 21.5t-80 60.5 q-37 31 -58.5 44t-45.5 13q-47 0 -76 -35t-31 -96h-88z" />
<glyph unicode="&#xc4;" horiz-adv-x="1468" d="M4 0l655 1434h150l655 -1434h-159l-172 383h-799l-172 -383h-158zM389 506h688l-344 770zM465 1686q0 37 25.5 62.5t62.5 25.5q35 0 61.5 -26t26.5 -62q0 -37 -25.5 -63t-62.5 -26t-62.5 25t-25.5 64zM830 1686q0 37 26.5 62.5t61.5 25.5q37 0 62.5 -26t25.5 -62 q0 -39 -25.5 -64t-62.5 -25t-62.5 26t-25.5 63z" />
<glyph unicode="&#xc5;" horiz-adv-x="1468" d="M4 0l655 1434h150l655 -1434h-159l-172 383h-799l-172 -383h-158zM389 506h688l-344 770zM521 1785q0 88 61 151.5t152 63.5q90 0 152.5 -63t62.5 -152q0 -86 -61.5 -147t-153.5 -61q-93 0 -153 61t-60 147zM596 1785q0 -59 38 -98t100 -39q61 0 100 39t39 98t-40 101.5 t-99 42.5t-98.5 -41t-39.5 -103z" />
<glyph unicode="&#xc6;" horiz-adv-x="2115" d="M4 0l875 1434h1083v-131h-832v-510h744v-129h-744v-533h863v-131h-1012v383h-588l-231 -383h-158zM467 506h514v797h-31z" />
<glyph unicode="&#xc7;" horiz-adv-x="1472" d="M106 717q0 207 97.5 373.5t269.5 261t385 94.5q160 0 295 -53.5t229 -155.5l-96 -96q-168 170 -424 170q-170 0 -309 -78t-218 -213t-79 -303t79 -303t218 -213t309 -78q258 0 424 172l96 -96q-94 -102 -230 -156.5t-296 -54.5q-213 0 -384 94t-268.5 261t-97.5 374z M611 -403l34 77q59 -39 135 -39q61 0 94 25t33 72q0 43 -31.5 68.5t-95.5 25.5h-47l50 186h88l-31 -118q84 -8 129 -52.5t45 -113.5q0 -82 -63.5 -130.5t-167.5 -48.5q-100 1 -172 48z" />
<glyph unicode="&#xc8;" horiz-adv-x="1370" d="M233 0v1434h984v-131h-832v-510h741v-129h-741v-533h862v-131h-1014zM385 1804h194l281 -254h-144z" />
<glyph unicode="&#xc9;" horiz-adv-x="1370" d="M233 0v1434h984v-131h-832v-510h741v-129h-741v-533h862v-131h-1014zM593 1550l281 254h195l-332 -254h-144z" />
<glyph unicode="&#xca;" horiz-adv-x="1370" d="M233 0v1434h984v-131h-832v-510h741v-129h-741v-533h862v-131h-1014zM389 1550l264 254h147l265 -254h-136l-202 170l-203 -170h-135z" />
<glyph unicode="&#xcb;" horiz-adv-x="1370" d="M233 0v1434h984v-131h-832v-510h741v-129h-741v-533h862v-131h-1014zM456 1686q0 37 25.5 62.5t62.5 25.5q35 0 61.5 -26t26.5 -62q0 -37 -25.5 -63t-62.5 -26t-62.5 25t-25.5 64zM821 1686q0 37 26.5 62.5t61.5 25.5q37 0 62.5 -26t25.5 -62q0 -39 -25.5 -64t-62.5 -25 t-62.5 26t-25.5 63z" />
<glyph unicode="&#xcc;" horiz-adv-x="618" d="M-32 1804h194l281 -254h-144zM233 0v1434h152v-1434h-152z" />
<glyph unicode="&#xcd;" horiz-adv-x="618" d="M176 1550l281 254h195l-332 -254h-144zM233 0v1434h152v-1434h-152z" />
<glyph unicode="&#xce;" horiz-adv-x="618" d="M-28 1550l264 254h147l265 -254h-136l-202 170l-203 -170h-135zM233 0v1434h152v-1434h-152z" />
<glyph unicode="&#xcf;" horiz-adv-x="618" d="M39 1686q0 37 25.5 62.5t62.5 25.5q35 0 61.5 -26t26.5 -62q0 -37 -25.5 -63t-62.5 -26t-62.5 25t-25.5 64zM233 0v1434h152v-1434h-152zM404 1686q0 37 26.5 62.5t61.5 25.5q37 0 62.5 -26t25.5 -62q0 -39 -25.5 -64t-62.5 -25t-62.5 26t-25.5 63z" />
<glyph unicode="&#xd0;" horiz-adv-x="1701" d="M26 670v121h795v-121h-795zM243 0v1434h584q227 0 401.5 -91.5t270.5 -254t96 -371.5t-96 -372t-270.5 -254t-401.5 -91h-584zM395 131h424q188 0 329.5 75t219.5 207t78 304t-78 304t-219.5 207t-329.5 75h-424v-1172z" />
<glyph unicode="&#xd1;" horiz-adv-x="1665" d="M233 0v1434h125l924 -1164v1164h150v-1434h-125l-922 1163v-1163h-152zM508 1571q4 102 53 163.5t131 61.5q47 0 83 -20.5t83 -61.5q33 -29 55.5 -43t47.5 -14q45 0 73.5 33.5t32.5 93.5h88q-4 -100 -53 -160.5t-131 -60.5q-47 0 -84 21.5t-80 60.5q-37 31 -58.5 44 t-45.5 13q-47 0 -76 -35t-31 -96h-88z" />
<glyph unicode="&#xd2;" d="M106 717q0 207 97.5 372.5t270.5 261t386 95.5t384 -94.5t269.5 -261t98.5 -373.5t-98.5 -374t-269.5 -261t-384 -94t-386 95t-270.5 261t-97.5 373zM256 717q0 -168 79 -304.5t217 -213t308 -76.5t307.5 76.5t215 213t77.5 304.5t-77.5 304t-215 213t-307.5 77t-308 -77 t-217 -213t-79 -304zM519 1804h194l281 -254h-144z" />
<glyph unicode="&#xd3;" d="M106 717q0 207 97.5 372.5t270.5 261t386 95.5t384 -94.5t269.5 -261t98.5 -373.5t-98.5 -374t-269.5 -261t-384 -94t-386 95t-270.5 261t-97.5 373zM256 717q0 -168 79 -304.5t217 -213t308 -76.5t307.5 76.5t215 213t77.5 304.5t-77.5 304t-215 213t-307.5 77t-308 -77 t-217 -213t-79 -304zM727 1550l281 254h195l-332 -254h-144z" />
<glyph unicode="&#xd4;" d="M106 717q0 207 97.5 372.5t270.5 261t386 95.5t384 -94.5t269.5 -261t98.5 -373.5t-98.5 -374t-269.5 -261t-384 -94t-386 95t-270.5 261t-97.5 373zM256 717q0 -168 79 -304.5t217 -213t308 -76.5t307.5 76.5t215 213t77.5 304.5t-77.5 304t-215 213t-307.5 77t-308 -77 t-217 -213t-79 -304zM523 1550l264 254h147l265 -254h-136l-202 170l-203 -170h-135z" />
<glyph unicode="&#xd5;" d="M106 717q0 207 97.5 372.5t270.5 261t386 95.5t384 -94.5t269.5 -261t98.5 -373.5t-98.5 -374t-269.5 -261t-384 -94t-386 95t-270.5 261t-97.5 373zM256 717q0 -168 79 -304.5t217 -213t308 -76.5t307.5 76.5t215 213t77.5 304.5t-77.5 304t-215 213t-307.5 77t-308 -77 t-217 -213t-79 -304zM537 1571q4 102 53 163.5t131 61.5q47 0 83 -20.5t83 -61.5q33 -29 55.5 -43t47.5 -14q45 0 73.5 33.5t32.5 93.5h88q-4 -100 -53 -160.5t-131 -60.5q-47 0 -84 21.5t-80 60.5q-37 31 -58.5 44t-45.5 13q-47 0 -76 -35t-31 -96h-88z" />
<glyph unicode="&#xd6;" d="M106 717q0 207 97.5 372.5t270.5 261t386 95.5t384 -94.5t269.5 -261t98.5 -373.5t-98.5 -374t-269.5 -261t-384 -94t-386 95t-270.5 261t-97.5 373zM256 717q0 -168 79 -304.5t217 -213t308 -76.5t307.5 76.5t215 213t77.5 304.5t-77.5 304t-215 213t-307.5 77t-308 -77 t-217 -213t-79 -304zM590 1686q0 37 25.5 62.5t62.5 25.5q35 0 61.5 -26t26.5 -62q0 -37 -25.5 -63t-62.5 -26t-62.5 25t-25.5 64zM955 1686q0 37 26.5 62.5t61.5 25.5q37 0 62.5 -26t25.5 -62q0 -39 -25.5 -64t-62.5 -25t-62.5 26t-25.5 63z" />
<glyph unicode="&#xd8;" d="M106 717q0 207 97.5 372.5t270.5 261t386 95.5t384 -94.5t269.5 -261t98.5 -373.5t-98.5 -374t-269.5 -261t-384 -94t-386 95t-270.5 261t-97.5 373zM178 -143l1243 1720h121l-1241 -1720h-123zM256 717q0 -168 79 -304.5t217 -213t308 -76.5t307.5 76.5t215 213 t77.5 304.5t-77.5 304t-215 213t-307.5 77t-308 -77t-217 -213t-79 -304z" />
<glyph unicode="&#xd9;" horiz-adv-x="1622" d="M221 612v822h152v-816q0 -250 112.5 -372.5t325.5 -122.5q215 0 327.5 123t112.5 372v816h148v-822q0 -305 -154.5 -464.5t-433.5 -159.5t-434.5 159.5t-155.5 464.5zM469 1804h194l281 -254h-144z" />
<glyph unicode="&#xda;" horiz-adv-x="1622" d="M221 612v822h152v-816q0 -250 112.5 -372.5t325.5 -122.5q215 0 327.5 123t112.5 372v816h148v-822q0 -305 -154.5 -464.5t-433.5 -159.5t-434.5 159.5t-155.5 464.5zM677 1550l281 254h195l-332 -254h-144z" />
<glyph unicode="&#xdb;" horiz-adv-x="1622" d="M221 612v822h152v-816q0 -250 112.5 -372.5t325.5 -122.5q215 0 327.5 123t112.5 372v816h148v-822q0 -305 -154.5 -464.5t-433.5 -159.5t-434.5 159.5t-155.5 464.5zM473 1550l264 254h147l265 -254h-136l-202 170l-203 -170h-135z" />
<glyph unicode="&#xdc;" horiz-adv-x="1622" d="M221 612v822h152v-816q0 -250 112.5 -372.5t325.5 -122.5q215 0 327.5 123t112.5 372v816h148v-822q0 -305 -154.5 -464.5t-433.5 -159.5t-434.5 159.5t-155.5 464.5zM540 1686q0 37 25.5 62.5t62.5 25.5q35 0 61.5 -26t26.5 -62q0 -37 -25.5 -63t-62.5 -26t-62.5 25 t-25.5 64zM905 1686q0 37 26.5 62.5t61.5 25.5q37 0 62.5 -26t25.5 -62q0 -39 -25.5 -64t-62.5 -25t-62.5 26t-25.5 63z" />
<glyph unicode="&#xdd;" horiz-adv-x="1300" d="M2 1434h162l491 -805l492 805h151l-573 -938v-496h-150v496zM516 1550l281 254h195l-332 -254h-144z" />
<glyph unicode="&#xde;" horiz-adv-x="1470" d="M233 0v1434h152v-187h385q274 0 430 -131t156 -360t-156 -360.5t-430 -131.5h-385v-264h-152zM385 397h381q213 0 325.5 93.5t112.5 265.5q0 174 -112.5 267t-325.5 93h-381v-719z" />
<glyph unicode="&#xdf;" horiz-adv-x="1368" d="M203 0v1020q0 246 136 378t357 132q139 0 242.5 -51.5t159 -139.5t55.5 -200q0 -117 -57.5 -206t-149.5 -136q150 -33 239 -134.5t89 -254.5q0 -129 -62.5 -223.5t-173 -144.5t-250.5 -50q-137 0 -229 33l25 122q86 -29 198 -28q156 0 250 77.5t94 217.5q0 137 -98 213.5 t-260 76.5h-119v125q170 2 266.5 84t96.5 222q0 123 -84 196.5t-232 73.5q-164 0 -256 -95.5t-92 -275.5v-1032h-145z" />
<glyph unicode="&#xe0;" horiz-adv-x="1208" d="M113 303q0 137 99 221t316 84h342v66q0 139 -77.5 211.5t-227.5 72.5q-102 0 -196.5 -33.5t-161.5 -93.5l-66 109q82 70 197 107.5t242 37.5q211 0 323.5 -105.5t112.5 -311.5v-668h-139v168q-49 -84 -144.5 -131t-226.5 -47q-180 0 -286.5 86t-106.5 227zM242 1499h194 l281 -254h-144zM256 307q0 -94 71.5 -148.5t200.5 -54.5q123 0 211 56.5t131 163.5v176h-338q-276 0 -276 -193z" />
<glyph unicode="&#xe1;" horiz-adv-x="1208" d="M113 303q0 137 99 221t316 84h342v66q0 139 -77.5 211.5t-227.5 72.5q-102 0 -196.5 -33.5t-161.5 -93.5l-66 109q82 70 197 107.5t242 37.5q211 0 323.5 -105.5t112.5 -311.5v-668h-139v168q-49 -84 -144.5 -131t-226.5 -47q-180 0 -286.5 86t-106.5 227zM256 307 q0 -94 71.5 -148.5t200.5 -54.5q123 0 211 56.5t131 163.5v176h-338q-276 0 -276 -193zM450 1245l281 254h195l-332 -254h-144z" />
<glyph unicode="&#xe2;" horiz-adv-x="1208" d="M113 303q0 137 99 221t316 84h342v66q0 139 -77.5 211.5t-227.5 72.5q-102 0 -196.5 -33.5t-161.5 -93.5l-66 109q82 70 197 107.5t242 37.5q211 0 323.5 -105.5t112.5 -311.5v-668h-139v168q-49 -84 -144.5 -131t-226.5 -47q-180 0 -286.5 86t-106.5 227zM246 1245 l264 254h147l265 -254h-136l-202 170l-203 -170h-135zM256 307q0 -94 71.5 -148.5t200.5 -54.5q123 0 211 56.5t131 163.5v176h-338q-276 0 -276 -193z" />
<glyph unicode="&#xe3;" horiz-adv-x="1208" d="M113 303q0 137 99 221t316 84h342v66q0 139 -77.5 211.5t-227.5 72.5q-102 0 -196.5 -33.5t-161.5 -93.5l-66 109q82 70 197 107.5t242 37.5q211 0 323.5 -105.5t112.5 -311.5v-668h-139v168q-49 -84 -144.5 -131t-226.5 -47q-180 0 -286.5 86t-106.5 227zM256 307 q0 -94 71.5 -148.5t200.5 -54.5q123 0 211 56.5t131 163.5v176h-338q-276 0 -276 -193zM260 1266q4 102 53 163.5t131 61.5q47 0 83 -20.5t83 -61.5q33 -29 55.5 -43t47.5 -14q45 0 73.5 33.5t32.5 93.5h88q-4 -100 -53 -161t-131 -61q-47 0 -84 21.5t-80 60.5 q-37 31 -58.5 44.5t-45.5 13.5q-47 0 -76 -35t-31 -96h-88z" />
<glyph unicode="&#xe4;" horiz-adv-x="1208" d="M113 303q0 137 99 221t316 84h342v66q0 139 -77.5 211.5t-227.5 72.5q-102 0 -196.5 -33.5t-161.5 -93.5l-66 109q82 70 197 107.5t242 37.5q211 0 323.5 -105.5t112.5 -311.5v-668h-139v168q-49 -84 -144.5 -131t-226.5 -47q-180 0 -286.5 86t-106.5 227zM256 307 q0 -94 71.5 -148.5t200.5 -54.5q123 0 211 56.5t131 163.5v176h-338q-276 0 -276 -193zM313 1380q0 37 25.5 62.5t62.5 25.5q35 0 61.5 -25.5t26.5 -62.5t-25.5 -62.5t-62.5 -25.5t-62.5 24.5t-25.5 63.5zM678 1380q0 37 26.5 62.5t61.5 25.5q37 0 62.5 -25.5t25.5 -62.5 q0 -39 -25.5 -63.5t-62.5 -24.5t-62.5 25.5t-25.5 62.5z" />
<glyph unicode="&#xe5;" horiz-adv-x="1208" d="M113 303q0 137 99 221t316 84h342v66q0 139 -77.5 211.5t-227.5 72.5q-102 0 -196.5 -33.5t-161.5 -93.5l-66 109q82 70 197 107.5t242 37.5q211 0 323.5 -105.5t112.5 -311.5v-668h-139v168q-49 -84 -144.5 -131t-226.5 -47q-180 0 -286.5 86t-106.5 227zM256 307 q0 -94 71.5 -148.5t200.5 -54.5q123 0 211 56.5t131 163.5v176h-338q-276 0 -276 -193zM369 1429q0 88 61 151.5t152 63.5q90 0 152.5 -63t62.5 -152q0 -86 -61.5 -147t-153.5 -61q-93 0 -153 61t-60 147zM444 1429q0 -59 38 -98t100 -39q61 0 100 39t39 98t-40 101.5 t-99 42.5t-98.5 -41t-39.5 -103z" />
<glyph unicode="&#xe6;" horiz-adv-x="2019" d="M113 307q0 131 99 215t316 84h342v68q0 139 -77.5 211.5t-227.5 72.5q-102 0 -196.5 -33.5t-161.5 -93.5l-66 109q82 70 197 107.5t240 37.5q311 0 395 -221q70 104 181.5 162.5t246.5 58.5q150 0 269.5 -69.5t187 -192.5t67.5 -276q0 -16 -4 -49h-903 q10 -170 127 -274.5t297 -104.5q205 0 330 141l81 -94q-74 -86 -180 -131t-235 -45q-156 0 -281 62.5t-201 185.5q-57 -127 -173.5 -187.5t-262.5 -60.5q-190 0 -298.5 87t-108.5 230zM256 311q0 -96 72.5 -151.5t201.5 -55.5q156 0 248 83t92 225v86h-338 q-145 0 -210.5 -50.5t-65.5 -136.5zM1018 606h764q-10 106 -63.5 187t-137.5 124.5t-182 43.5q-96 0 -179 -43.5t-137.5 -123t-64.5 -188.5z" />
<glyph unicode="&#xe7;" horiz-adv-x="1153" d="M94 539q0 158 72 282.5t197.5 194t285.5 69.5q139 0 249 -54t173 -159l-108 -73q-53 80 -135.5 119.5t-178.5 39.5q-117 0 -210 -52t-145 -148t-52 -219q0 -125 52 -220.5t145 -147.5t210 -52q96 0 178 39t136 118l108 -73q-63 -104 -174 -158.5t-248 -54.5 q-160 0 -285.5 69.5t-197.5 195.5t-72 284zM392 -403l34 77q59 -39 135 -39q61 0 94 25t33 72q0 43 -31.5 68.5t-95.5 25.5h-47l50 186h88l-31 -118q84 -8 129 -52.5t45 -113.5q0 -82 -63.5 -130.5t-167.5 -48.5q-100 1 -172 48z" />
<glyph unicode="&#xe8;" horiz-adv-x="1236" d="M94 539q0 158 68.5 282.5t188.5 194t270 69.5t268.5 -69.5t186 -193.5t67.5 -283l-2 -45h-901q12 -168 128.5 -271.5t295.5 -103.5q100 0 184 35.5t145 105.5l82 -94q-72 -86 -179.5 -131t-236.5 -45q-166 0 -293.5 70.5t-199.5 195.5t-72 283zM240 602h764 q-14 160 -120 259.5t-263 99.5q-156 0 -261.5 -99.5t-119.5 -259.5zM279 1499h194l281 -254h-144z" />
<glyph unicode="&#xe9;" horiz-adv-x="1236" d="M94 539q0 158 68.5 282.5t188.5 194t270 69.5t268.5 -69.5t186 -193.5t67.5 -283l-2 -45h-901q12 -168 128.5 -271.5t295.5 -103.5q100 0 184 35.5t145 105.5l82 -94q-72 -86 -179.5 -131t-236.5 -45q-166 0 -293.5 70.5t-199.5 195.5t-72 283zM240 602h764 q-14 160 -120 259.5t-263 99.5q-156 0 -261.5 -99.5t-119.5 -259.5zM487 1245l281 254h195l-332 -254h-144z" />
<glyph unicode="&#xea;" horiz-adv-x="1236" d="M94 539q0 158 68.5 282.5t188.5 194t270 69.5t268.5 -69.5t186 -193.5t67.5 -283l-2 -45h-901q12 -168 128.5 -271.5t295.5 -103.5q100 0 184 35.5t145 105.5l82 -94q-72 -86 -179.5 -131t-236.5 -45q-166 0 -293.5 70.5t-199.5 195.5t-72 283zM240 602h764 q-14 160 -120 259.5t-263 99.5q-156 0 -261.5 -99.5t-119.5 -259.5zM283 1245l264 254h147l265 -254h-136l-202 170l-203 -170h-135z" />
<glyph unicode="&#xeb;" horiz-adv-x="1236" d="M94 539q0 158 68.5 282.5t188.5 194t270 69.5t268.5 -69.5t186 -193.5t67.5 -283l-2 -45h-901q12 -168 128.5 -271.5t295.5 -103.5q100 0 184 35.5t145 105.5l82 -94q-72 -86 -179.5 -131t-236.5 -45q-166 0 -293.5 70.5t-199.5 195.5t-72 283zM240 602h764 q-14 160 -120 259.5t-263 99.5q-156 0 -261.5 -99.5t-119.5 -259.5zM350 1380q0 37 25.5 62.5t62.5 25.5q35 0 61.5 -25.5t26.5 -62.5t-25.5 -62.5t-62.5 -25.5t-62.5 24.5t-25.5 63.5zM715 1380q0 37 26.5 62.5t61.5 25.5q37 0 62.5 -25.5t25.5 -62.5q0 -39 -25.5 -63.5 t-62.5 -24.5t-62.5 25.5t-25.5 62.5z" />
<glyph unicode="&#xec;" horiz-adv-x="550" d="M-65 1499h194l281 -254h-144zM203 0v1077h145v-1077h-145z" />
<glyph unicode="&#xed;" horiz-adv-x="550" d="M143 1245l281 254h195l-332 -254h-144zM203 0v1077h145v-1077h-145z" />
<glyph unicode="&#xee;" horiz-adv-x="550" d="M-10 1245l215 254h143l215 -254h-131l-155 166l-156 -166h-131zM203 0v1077h145v-1077h-145z" />
<glyph unicode="&#xef;" horiz-adv-x="550" d="M55 1380q0 35 25 60.5t61 25.5q35 0 59.5 -24.5t24.5 -61.5q0 -39 -24.5 -63.5t-59.5 -24.5q-36 0 -61 25.5t-25 62.5zM203 0v1077h145v-1077h-145zM328 1380q0 35 24.5 60.5t59.5 25.5q37 0 61.5 -24.5t24.5 -61.5q0 -39 -24.5 -63.5t-61.5 -24.5q-35 0 -59.5 25.5 t-24.5 62.5z" />
<glyph unicode="&#xf0;" horiz-adv-x="1296" d="M94 440q0 135 65.5 238.5t181.5 159t265 55.5q156 0 273.5 -70.5t171.5 -201.5q4 43 4 120q0 170 -50.5 295t-144.5 203l-549 -229l-41 100l473 197q-100 41 -225 41q-154 0 -301 -45l-24 124q147 43 325 43q225 0 381 -98l182 76l41 -100l-125 -52q205 -200 205 -585 q0 -336 -157.5 -529.5t-446.5 -193.5q-143 0 -258 56t-180.5 158.5t-65.5 237.5zM242 440q0 -147 100 -237t264 -90q121 0 209 46t134 120.5t46 160.5q0 92 -48 167t-133 118t-193 43q-176 0 -277.5 -89t-101.5 -239z" />
<glyph unicode="&#xf1;" horiz-adv-x="1386" d="M203 0v1077h139v-198q59 98 164.5 152t245.5 54q202 0 322 -117.5t120 -342.5v-625h-145v610q0 168 -84 256t-240 88q-174 0 -275.5 -103t-101.5 -286v-565h-145zM373 1266q4 102 53 163.5t131 61.5q47 0 83 -20.5t83 -61.5q33 -29 55.5 -43t47.5 -14q45 0 73.5 33.5 t32.5 93.5h88q-4 -100 -53 -161t-131 -61q-47 0 -84 21.5t-80 60.5q-37 31 -58.5 44.5t-45.5 13.5q-47 0 -76 -35t-31 -96h-88z" />
<glyph unicode="&#xf2;" horiz-adv-x="1284" d="M94 539q0 158 72 282.5t196.5 194t280.5 69.5t281 -69.5t195.5 -194.5t70.5 -282q0 -158 -70.5 -283t-195.5 -195.5t-281 -70.5t-280.5 70.5t-196.5 195.5t-72 283zM242 539q0 -123 52 -219.5t143 -148.5t206 -52t206 52t142 148.5t51 219.5t-51 219t-142 148t-206 52 t-206 -52t-143 -148t-52 -219zM299 1499h194l281 -254h-144z" />
<glyph unicode="&#xf3;" horiz-adv-x="1284" d="M94 539q0 158 72 282.5t196.5 194t280.5 69.5t281 -69.5t195.5 -194.5t70.5 -282q0 -158 -70.5 -283t-195.5 -195.5t-281 -70.5t-280.5 70.5t-196.5 195.5t-72 283zM242 539q0 -123 52 -219.5t143 -148.5t206 -52t206 52t142 148.5t51 219.5t-51 219t-142 148t-206 52 t-206 -52t-143 -148t-52 -219zM507 1245l281 254h195l-332 -254h-144z" />
<glyph unicode="&#xf4;" horiz-adv-x="1284" d="M94 539q0 158 72 282.5t196.5 194t280.5 69.5t281 -69.5t195.5 -194.5t70.5 -282q0 -158 -70.5 -283t-195.5 -195.5t-281 -70.5t-280.5 70.5t-196.5 195.5t-72 283zM242 539q0 -123 52 -219.5t143 -148.5t206 -52t206 52t142 148.5t51 219.5t-51 219t-142 148t-206 52 t-206 -52t-143 -148t-52 -219zM303 1245l264 254h147l265 -254h-136l-202 170l-203 -170h-135z" />
<glyph unicode="&#xf5;" horiz-adv-x="1284" d="M94 539q0 158 72 282.5t196.5 194t280.5 69.5t281 -69.5t195.5 -194.5t70.5 -282q0 -158 -70.5 -283t-195.5 -195.5t-281 -70.5t-280.5 70.5t-196.5 195.5t-72 283zM242 539q0 -123 52 -219.5t143 -148.5t206 -52t206 52t142 148.5t51 219.5t-51 219t-142 148t-206 52 t-206 -52t-143 -148t-52 -219zM317 1266q4 102 53 163.5t131 61.5q47 0 83 -20.5t83 -61.5q33 -29 55.5 -43t47.5 -14q45 0 73.5 33.5t32.5 93.5h88q-4 -100 -53 -161t-131 -61q-47 0 -84 21.5t-80 60.5q-37 31 -58.5 44.5t-45.5 13.5q-47 0 -76 -35t-31 -96h-88z" />
<glyph unicode="&#xf6;" horiz-adv-x="1284" d="M94 539q0 158 72 282.5t196.5 194t280.5 69.5t281 -69.5t195.5 -194.5t70.5 -282q0 -158 -70.5 -283t-195.5 -195.5t-281 -70.5t-280.5 70.5t-196.5 195.5t-72 283zM242 539q0 -123 52 -219.5t143 -148.5t206 -52t206 52t142 148.5t51 219.5t-51 219t-142 148t-206 52 t-206 -52t-143 -148t-52 -219zM370 1380q0 37 25.5 62.5t62.5 25.5q35 0 61.5 -25.5t26.5 -62.5t-25.5 -62.5t-62.5 -25.5t-62.5 24.5t-25.5 63.5zM735 1380q0 37 26.5 62.5t61.5 25.5q37 0 62.5 -25.5t25.5 -62.5q0 -39 -25.5 -63.5t-62.5 -24.5t-62.5 25.5t-25.5 62.5z " />
<glyph unicode="&#xf8;" horiz-adv-x="1284" d="M94 539q0 158 72 282.5t196.5 194t280.5 69.5t281 -69.5t195.5 -194.5t70.5 -282q0 -158 -70.5 -283t-195.5 -195.5t-281 -70.5t-280.5 70.5t-196.5 195.5t-72 283zM137 -145l908 1362h96l-905 -1362h-99zM242 539q0 -123 52 -219.5t143 -148.5t206 -52t206 52t142 148.5 t51 219.5t-51 219t-142 148t-206 52t-206 -52t-143 -148t-52 -219z" />
<glyph unicode="&#xf9;" horiz-adv-x="1378" d="M193 453v624h145v-610q0 -170 84 -258t240 -88q170 0 268 103.5t98 287.5v565h146v-1077h-140v197q-57 -98 -157.5 -152.5t-229.5 -54.5q-211 0 -332.5 117.5t-121.5 345.5zM342 1499h194l281 -254h-144z" />
<glyph unicode="&#xfa;" horiz-adv-x="1378" d="M193 453v624h145v-610q0 -170 84 -258t240 -88q170 0 268 103.5t98 287.5v565h146v-1077h-140v197q-57 -98 -157.5 -152.5t-229.5 -54.5q-211 0 -332.5 117.5t-121.5 345.5zM550 1245l281 254h195l-332 -254h-144z" />
<glyph unicode="&#xfb;" horiz-adv-x="1378" d="M193 453v624h145v-610q0 -170 84 -258t240 -88q170 0 268 103.5t98 287.5v565h146v-1077h-140v197q-57 -98 -157.5 -152.5t-229.5 -54.5q-211 0 -332.5 117.5t-121.5 345.5zM346 1245l264 254h147l265 -254h-136l-202 170l-203 -170h-135z" />
<glyph unicode="&#xfc;" horiz-adv-x="1378" d="M193 453v624h145v-610q0 -170 84 -258t240 -88q170 0 268 103.5t98 287.5v565h146v-1077h-140v197q-57 -98 -157.5 -152.5t-229.5 -54.5q-211 0 -332.5 117.5t-121.5 345.5zM413 1380q0 37 25.5 62.5t62.5 25.5q35 0 61.5 -25.5t26.5 -62.5t-25.5 -62.5t-62.5 -25.5 t-62.5 24.5t-25.5 63.5zM778 1380q0 37 26.5 62.5t61.5 25.5q37 0 62.5 -25.5t25.5 -62.5q0 -39 -25.5 -63.5t-62.5 -24.5t-62.5 25.5t-25.5 62.5z" />
<glyph unicode="&#xfd;" horiz-adv-x="1110" d="M-51 -309l67 108q82 -82 197 -82q74 0 126 41t97 140l47 104l-481 1075h152l405 -915l406 915h143l-539 -1206q-66 -152 -151.5 -215.5t-206.5 -63.5q-78 0 -145.5 25t-116.5 74zM393 1245l281 254h195l-332 -254h-144z" />
<glyph unicode="&#xfe;" horiz-adv-x="1388" d="M203 -397v1917h145v-646q66 102 172.5 156.5t237.5 54.5q151 0 274 -68.5t192.5 -193.5t69.5 -284q0 -162 -69.5 -287t-191.5 -193.5t-275 -68.5q-131 0 -236.5 54t-173.5 159v-600h-145zM346 539q0 -123 52.5 -219.5t143.5 -148.5t206 -52q112 0 204 52t144.5 148.5 t52.5 219.5t-52.5 218t-144.5 148t-204 53q-115 0 -206 -53t-143.5 -148t-52.5 -218z" />
<glyph unicode="&#xff;" horiz-adv-x="1110" d="M-51 -309l67 108q82 -82 197 -82q74 0 126 41t97 140l47 104l-481 1075h152l405 -915l406 915h143l-539 -1206q-66 -152 -151.5 -215.5t-206.5 -63.5q-78 0 -145.5 25t-116.5 74zM256 1380q0 37 25.5 62.5t62.5 25.5q35 0 61.5 -25.5t26.5 -62.5t-25.5 -62.5t-62.5 -25.5 t-62.5 24.5t-25.5 63.5zM621 1380q0 37 26.5 62.5t61.5 25.5q37 0 62.5 -25.5t25.5 -62.5q0 -39 -25.5 -63.5t-62.5 -24.5t-62.5 25.5t-25.5 62.5z" />
<glyph unicode="&#x131;" horiz-adv-x="550" d="M203 0v1077h145v-1077h-145z" />
<glyph unicode="&#x152;" horiz-adv-x="2295" d="M106 715q0 211 96.5 373.5t270.5 254t401 91.5h1268v-131h-831v-510h741v-129h-741v-533h862v-131h-1299q-225 0 -400 91t-271.5 253t-96.5 371zM256 715q0 -170 77 -303t219 -207t329 -74h278v1172h-278q-186 0 -328.5 -75t-219.5 -208t-77 -305z" />
<glyph unicode="&#x153;" horiz-adv-x="2187" d="M94 539q0 158 72 282.5t196.5 194t280.5 69.5q158 0 282 -73.5t189 -200.5q63 127 183 200.5t274 73.5q150 0 268.5 -69.5t186 -193.5t67.5 -283l-2 -45h-903q12 -168 130 -271.5t296 -103.5q100 0 184 35.5t144 105.5l81 -94q-72 -86 -178 -131t-235 -45 q-170 0 -299 74.5t-197 203.5q-66 -129 -188.5 -203.5t-282.5 -74.5q-156 0 -280.5 70.5t-196.5 195.5t-72 283zM242 539q0 -123 52 -219.5t143 -148.5t206 -52t206 52t142 148.5t51 219.5t-51 219t-142 148t-206 52t-206 -52t-143 -148t-52 -219zM1188 602h766 q-14 158 -121 258.5t-262 100.5q-156 0 -262.5 -100.5t-120.5 -258.5z" />
<glyph unicode="&#x178;" horiz-adv-x="1300" d="M2 1434h162l491 -805l492 805h151l-573 -938v-496h-150v496zM379 1686q0 37 25.5 62.5t62.5 25.5q35 0 61.5 -26t26.5 -62q0 -37 -25.5 -63t-62.5 -26t-62.5 25t-25.5 64zM744 1686q0 37 26.5 62.5t61.5 25.5q37 0 62.5 -26t25.5 -62q0 -39 -25.5 -64t-62.5 -25t-62.5 26 t-25.5 63z" />
<glyph unicode="&#x192;" horiz-adv-x="897" d="M-184 -338l59 111q59 -55 158 -56q88 0 141 52.5t66 150.5l127 1018h-193l14 121h193l18 151q16 145 110.5 232.5t244.5 87.5q63 0 122.5 -17.5t94.5 -52.5l-64 -110q-29 27 -67.5 41t-83.5 14q-186 0 -215 -203l-19 -143h330l-14 -121h-326l-127 -1026 q-16 -147 -108.5 -233.5t-239.5 -86.5q-68 0 -127.5 17.5t-93.5 52.5z" />
<glyph unicode="&#x2c6;" horiz-adv-x="1228" d="M277 1243l264 254h147l265 -254h-136l-202 170l-203 -170h-135z" />
<glyph unicode="&#x2da;" horiz-adv-x="1228" d="M400 1427q0 88 61 151.5t152 63.5q90 0 152.5 -63t62.5 -152q0 -86 -61.5 -147t-153.5 -61q-93 0 -153 61t-60 147zM475 1427q0 -59 38 -98t100 -39q61 0 100 39t39 98t-40 101.5t-99 42.5t-98.5 -41t-39.5 -103z" />
<glyph unicode="&#x2dc;" horiz-adv-x="1228" d="M291 1264q4 102 53 163.5t131 61.5q47 0 83 -20.5t83 -61.5q33 -29 55.5 -43t47.5 -14q45 0 73.5 33.5t32.5 93.5h88q-4 -100 -53 -161t-131 -61q-47 0 -84 21.5t-80 60.5q-37 31 -58.5 44.5t-45.5 13.5q-47 0 -76 -35t-31 -96h-88z" />
<glyph unicode="&#x400;" horiz-adv-x="1349" d="M241 0v1434h984v-131h-832v-510h741v-129h-741v-533h862v-131h-1014zM394 1804h194l281 -254h-144z" />
<glyph unicode="&#x401;" horiz-adv-x="1349" d="M241 0v1434h984v-131h-832v-510h741v-129h-741v-533h862v-131h-1014zM465 1686q0 37 25.5 62.5t62.5 25.5q35 0 61.5 -26t26.5 -62q0 -37 -25.5 -63t-62.5 -26t-62.5 25t-25.5 64zM830 1686q0 37 26.5 62.5t61.5 25.5q37 0 62.5 -26t25.5 -62q0 -39 -25.5 -64t-62.5 -25 t-62.5 26t-25.5 63z" />
<glyph unicode="&#x402;" horiz-adv-x="1689" d="M25 1303v131h1200v-131h-545v-529q235 90 436 90q221 0 354.5 -111.5t133.5 -324.5q0 -215 -133.5 -326.5t-335.5 -111.5q-76 0 -172 20l20 127q59 -16 137 -16q145 0 239.5 75.5t94.5 227.5q0 154 -99.5 232.5t-267.5 78.5q-186 0 -407 -96v-639h-150v1303h-505z" />
<glyph unicode="&#x403;" horiz-adv-x="1171" d="M242 0v1434h911v-131h-764l2 -1303h-149zM548 1550l281 254h195l-332 -254h-144z" />
<glyph unicode="&#x404;" horiz-adv-x="1447" d="M121 717q0 207 93 374t256 261t364 94q168 0 307 -53t233 -158l-94 -96q-170 172 -440 172q-152 0 -277 -70.5t-201.5 -194.5t-86.5 -280h739v-125h-737q16 -150 93 -267.5t199.5 -184t270.5 -66.5q270 0 440 172l94 -96q-94 -104 -233 -157.5t-307 -53.5 q-201 0 -364 94.5t-256 261t-93 373.5z" />
<glyph unicode="&#x405;" horiz-adv-x="1284" d="M110 174l60 117q78 -78 207 -126t266 -48q193 0 289 70.5t96 183.5q0 86 -52.5 137t-128 78.5t-210.5 60.5q-162 41 -258.5 79t-165 116t-68.5 211q0 109 57.5 197.5t176 142t294.5 53.5q123 0 241 -34t204 -93l-51 -121q-90 59 -192.5 89t-201.5 30q-188 0 -283 -73 t-95 -187q0 -86 52 -138.5t131 -80t212 -60.5q158 -39 255 -76.5t164.5 -114.5t67.5 -208q0 -109 -58 -198t-179 -141t-297 -52q-160 0 -306.5 51t-226.5 135z" />
<glyph unicode="&#x406;" horiz-adv-x="632" d="M242 0v1434h149v-1434h-149z" />
<glyph unicode="&#x407;" horiz-adv-x="618" d="M39 1686q0 37 25.5 62.5t62.5 25.5q35 0 61.5 -26t26.5 -62q0 -37 -25.5 -63t-62.5 -26t-62.5 25t-25.5 64zM233 0v1434h152v-1434h-152zM404 1686q0 37 26.5 62.5t61.5 25.5q37 0 62.5 -26t25.5 -62q0 -39 -25.5 -64t-62.5 -25t-62.5 26t-25.5 63z" />
<glyph unicode="&#x408;" horiz-adv-x="1079" d="M43 193l90 102q119 -176 309 -176q266 0 266 315v869h-524v131h674v-994q0 -225 -105.5 -338.5t-312.5 -113.5q-123 0 -227.5 53t-169.5 152z" />
<glyph unicode="&#x409;" horiz-adv-x="2428" d="M23 0l12 135q35 -8 67 -8q90 0 146.5 71.5t85 222t39.5 398.5l20 615h973v-1434h-149v1303h-693l-16 -480q-10 -297 -48 -478t-116 -270t-207 -89q-55 0 -114 14zM1217 0v1434h149v-512h451q254 0 388 -115t134 -336q0 -231 -142.5 -351t-410.5 -120h-569zM1366 121h416 q199 0 302 88t103 260q0 330 -405 330h-416v-678z" />
<glyph unicode="&#x40a;" horiz-adv-x="2424" d="M242 0v1434h149v-590h866v590h150v-584h446q232 0 361 -108.5t129 -305.5q0 -205 -137.5 -320.5t-380.5 -115.5h-568v713h-866v-713h-149zM1407 121h410q178 0 276 82t98 227q0 143 -97 220t-277 77h-410v-606z" />
<glyph unicode="&#x40b;" horiz-adv-x="1710" d="M23 1303v131h1194v-131h-541v-539q231 96 434 96q229 0 360.5 -116.5t131.5 -344.5v-399h-150v383q0 166 -98.5 254t-272.5 88q-178 0 -405 -100v-625h-150v1303h-503z" />
<glyph unicode="&#x40c;" horiz-adv-x="1437" d="M242 0v1434h147v-643h328l485 643h164l-532 -697l563 -737h-174l-506 657h-328v-657h-147zM587 1550l281 254h195l-332 -254h-144z" />
<glyph unicode="&#x40d;" horiz-adv-x="1687" d="M242 0v1434h149v-1188l918 1188h137v-1434h-150v1186l-917 -1186h-137zM498 1804h194l281 -254h-144z" />
<glyph unicode="&#x40e;" horiz-adv-x="1392" d="M43 1434h162l500 -971l512 971h151l-651 -1207q-70 -129 -163 -191.5t-204 -62.5q-82 0 -176 39l43 123q74 -29 135 -29q141 0 232 154l41 70zM348 1802h113q2 -82 61 -129t160 -47q98 0 158.5 47t62.5 129h113q-2 -125 -92.5 -194.5t-241.5 -69.5q-154 0 -243 69.5 t-91 194.5z" />
<glyph unicode="&#x40f;" horiz-adv-x="1650" d="M242 0v1434h149v-1303h866v1303h150v-1434h-512v-336h-141v336h-512z" />
<glyph unicode="&#x410;" horiz-adv-x="1523" d="M31 0l655 1434h150l655 -1434h-159l-172 383h-799l-172 -383h-158zM416 506h688l-344 770z" />
<glyph unicode="&#x411;" horiz-adv-x="1488" d="M242 0v1434h1048v-129h-899v-469h469q254 0 386 -104.5t132 -303.5q0 -207 -142 -317.5t-409 -110.5h-585zM391 121h434q199 0 300.5 75.5t101.5 225.5q0 147 -99.5 220t-302.5 73h-434v-594z" />
<glyph unicode="&#x412;" horiz-adv-x="1533" d="M242 0v1434h596q229 0 358 -94.5t129 -272.5q0 -121 -61.5 -204t-171.5 -124q149 -30 227 -119.5t78 -232.5q0 -186 -132 -286.5t-388 -100.5h-635zM391 121h486q370 0 370 276q0 270 -370 271h-486v-547zM391 784h438q166 0 255.5 68t89.5 197t-89.5 196.5t-255.5 67.5 h-438v-529z" />
<glyph unicode="&#x413;" horiz-adv-x="1171" d="M242 0v1434h911v-131h-764l2 -1303h-149z" />
<glyph unicode="&#x414;" horiz-adv-x="1626" d="M23 -322l2 453h71q141 8 196.5 224t67.5 614l17 465h966v-1303h216v-453h-142v322h-1251l-2 -322h-141zM311 131h883v1172h-686l-12 -349q-11 -327 -50.5 -539t-134.5 -284z" />
<glyph unicode="&#x415;" horiz-adv-x="1349" d="M241 0v1434h984v-131h-832v-510h741v-129h-741v-533h862v-131h-1014z" />
<glyph unicode="&#x416;" horiz-adv-x="2070" d="M49 0l492 739l-455 695h164l412 -643h301v643h147v-643h297l414 643h164l-455 -695l491 -739h-176l-438 657h-297v-657h-147v657h-299l-439 -657h-176z" />
<glyph unicode="&#x417;" horiz-adv-x="1302" d="M72 172l55 109q94 -80 215 -122t244 -42q117 0 215 36.5t156.5 105.5t58.5 163q0 125 -98.5 192.5t-276.5 67.5h-307v123h299q152 0 236.5 64.5t84.5 179.5q0 127 -108.5 199.5t-272.5 72.5q-102 0 -206.5 -29.5t-198.5 -89.5l-51 125q213 127 461 127q145 0 266 -47 t191.5 -135t70.5 -207q0 -115 -63.5 -198t-178.5 -117q142 -35 222.5 -127.5t80.5 -221.5q0 -125 -77.5 -219t-206.5 -144t-281 -50q-143 0 -281.5 46t-248.5 138z" />
<glyph unicode="&#x418;" horiz-adv-x="1687" d="M242 0v1434h149v-1188l918 1188h137v-1434h-150v1186l-917 -1186h-137z" />
<glyph unicode="&#x419;" horiz-adv-x="1687" d="M242 0v1434h149v-1188l918 1188h137v-1434h-150v1186l-917 -1186h-137zM506 1802h113q2 -82 61 -129t160 -47q98 0 158.5 47t62.5 129h113q-2 -125 -92.5 -194.5t-241.5 -69.5q-154 0 -243 69.5t-91 194.5z" />
<glyph unicode="&#x41a;" horiz-adv-x="1437" d="M242 0v1434h147v-643h328l485 643h164l-532 -697l563 -737h-174l-506 657h-328v-657h-147z" />
<glyph unicode="&#x41b;" horiz-adv-x="1607" d="M23 0l12 135q35 -8 67 -8q90 0 146.5 71.5t85 222t39.5 398.5l20 615h973v-1434h-149v1303h-693l-16 -480q-10 -297 -48 -478t-116 -270t-207 -89q-55 0 -114 14z" />
<glyph unicode="&#x41c;" horiz-adv-x="1972" d="M242 0v1434h125l622 -1063l617 1063h125v-1434h-146v1147l-563 -965h-72l-563 959v-1141h-145z" />
<glyph unicode="&#x41d;" horiz-adv-x="1681" d="M241 0v1434h152v-639h897v639h150v-1434h-150v662h-897v-662h-152z" />
<glyph unicode="&#x41e;" horiz-adv-x="1742" d="M116 717q0 207 97.5 372.5t270.5 261t386 95.5t384 -94.5t269.5 -261t98.5 -373.5t-98.5 -374t-269.5 -261t-384 -94t-386 95t-270.5 261t-97.5 373zM266 717q0 -168 79 -304.5t217 -213t308 -76.5t307.5 76.5t215 213t77.5 304.5t-77.5 304t-215 213t-307.5 77t-308 -77 t-217 -213t-79 -304z" />
<glyph unicode="&#x41f;" horiz-adv-x="1689" d="M242 0v1434h1206v-1434h-150v1303h-907v-1303h-149z" />
<glyph unicode="&#x420;" horiz-adv-x="1454" d="M241 0v1434h537q274 0 430 -131.5t156 -360.5t-156 -359t-430 -130h-385v-453h-152zM393 586h381q213 0 325.5 93t112.5 263q0 174 -112.5 267.5t-325.5 93.5h-381v-717z" />
<glyph unicode="&#x421;" horiz-adv-x="1466" d="M118 717q0 207 97.5 373.5t269.5 261t385 94.5q160 0 295 -53.5t229 -155.5l-96 -96q-168 170 -424 170q-170 0 -309 -78t-218 -213t-79 -303t79 -303t218 -213t309 -78q258 0 424 172l96 -96q-94 -102 -230 -156.5t-296 -54.5q-213 0 -384 94t-268.5 261t-97.5 374z" />
<glyph unicode="&#x422;" horiz-adv-x="1204" d="M23 1303v131h1157v-131h-504v-1303h-150v1303h-503z" />
<glyph unicode="&#x423;" horiz-adv-x="1392" d="M43 1434h162l500 -971l512 971h151l-651 -1207q-70 -129 -163 -191.5t-204 -62.5q-82 0 -176 39l43 123q74 -29 135 -29q141 0 232 154l41 70z" />
<glyph unicode="&#x424;" horiz-adv-x="1878" d="M102 719q0 285 202 446.5t564 173.5v144h142v-144q360 -12 563 -175t203 -445q0 -285 -202 -447.5t-564 -173.5v-147h-142v147q-362 12 -564 174t-202 447zM248 719q0 -230 162.5 -358t457.5 -142v998q-299 -12 -459.5 -140.5t-160.5 -357.5zM1010 219q297 12 458.5 141 t161.5 359q0 229 -162.5 358t-457.5 140v-998z" />
<glyph unicode="&#x425;" horiz-adv-x="1331" d="M45 0l526 739l-489 695h174l408 -568l405 568h178l-489 -689l528 -745h-178l-444 616l-445 -616h-174z" />
<glyph unicode="&#x426;" horiz-adv-x="1693" d="M242 0v1434h149v-1303h866v1303h150v-1303h227v-467h-141v336h-1251z" />
<glyph unicode="&#x427;" horiz-adv-x="1497" d="M121 961v473h149v-457q0 -166 104.5 -258t293.5 -92q215 0 438 102v705h147v-1434h-147v594q-233 -100 -453 -100q-252 0 -392 122.5t-140 344.5z" />
<glyph unicode="&#x428;" horiz-adv-x="2240" d="M242 0v1434h149v-1303h656v1303h149v-1303h653v1303h150v-1434h-1757z" />
<glyph unicode="&#x429;" horiz-adv-x="2287" d="M242 0v1434h149v-1303h656v1303h149v-1303h653v1303h150v-1434h-1757zM1847 0v131h375v-453h-141v322h-234z" />
<glyph unicode="&#x42a;" horiz-adv-x="1679" d="M23 1303v131h595v-512h451q254 0 387 -115t133 -336q0 -231 -142 -351t-411 -120h-567v1303h-446zM618 121h416q199 0 302.5 88t103.5 260q0 330 -406 330h-416v-678z" />
<glyph unicode="&#x42b;" horiz-adv-x="2002" d="M242 0v1434h149v-512h451q254 0 388 -115t134 -336q0 -231 -142.5 -351t-410.5 -120h-569zM391 121h416q199 0 302 88t103 260q0 330 -405 330h-416v-678zM1612 0v1434h149v-1434h-149z" />
<glyph unicode="&#x42c;" horiz-adv-x="1454" d="M242 0v1434h149v-512h451q254 0 388 -115t134 -336q0 -231 -142.5 -351t-410.5 -120h-569zM391 121h416q199 0 302 88t103 260q0 330 -405 330h-416v-678z" />
<glyph unicode="&#x42d;" horiz-adv-x="1445" d="M72 199l94 96q170 -172 440 -172q152 0 277 70.5t201.5 194.5t86.5 280h-739v125h737q-16 150 -93 267.5t-199.5 184t-270.5 66.5q-270 0 -440 -172l-94 96q94 104 233 157.5t307 53.5q201 0 364 -94.5t256 -261t93 -373.5t-93 -374t-256 -261t-364 -94q-168 0 -307 53 t-233 158z" />
<glyph unicode="&#x42e;" horiz-adv-x="2236" d="M242 0v1434h149v-637h297q16 186 113.5 334.5t253 231.5t344.5 83q203 0 366.5 -94.5t257 -261t93.5 -373.5t-93.5 -374t-257 -261t-366.5 -94q-193 0 -350.5 86t-254 239.5t-108.5 345.5h-295v-659h-149zM836 717q0 -170 73.5 -305.5t202.5 -212t287 -76.5 q160 0 289 76.5t202.5 212t73.5 305.5t-73.5 305t-202.5 212t-289 77q-158 0 -287 -77t-202.5 -212t-73.5 -305z" />
<glyph unicode="&#x42f;" horiz-adv-x="1499" d="M135 0l326 465q-158 47 -242 167t-84 294q0 242 152.5 375t412.5 133h557v-1434h-149v434h-428q-29 0 -82 4l-301 -438h-162zM287 930q0 -176 103.5 -271.5t301.5 -95.5h416v740h-401q-201 0 -310.5 -95.5t-109.5 -277.5z" />
<glyph unicode="&#x430;" horiz-adv-x="1193" d="M111 303q0 137 99 221t316 84h342v66q0 139 -77.5 211.5t-227.5 72.5q-102 0 -196.5 -33.5t-161.5 -93.5l-66 109q82 70 197 107.5t242 37.5q211 0 323.5 -105.5t112.5 -311.5v-668h-139v168q-49 -84 -144.5 -131t-226.5 -47q-180 0 -286.5 86t-106.5 227zM254 307 q0 -94 71.5 -148.5t200.5 -54.5q123 0 211 56.5t131 163.5v176h-338q-276 0 -276 -193z" />
<glyph unicode="&#x431;" horiz-adv-x="1349" d="M139 696q0 346 132 530.5t413 250.5l483 110l25 -133l-455 -104q-231 -51 -339.5 -181.5t-118.5 -384.5q66 125 182.5 196t267.5 71q150 0 267.5 -66.5t183 -186.5t65.5 -274q0 -158 -68.5 -279.5t-191.5 -189t-283 -67.5q-268 0 -415.5 188.5t-147.5 519.5zM313 520 q0 -119 50.5 -213t140.5 -146t203 -52q112 0 201 52t139.5 146t50.5 213t-49.5 209t-138.5 140.5t-203 50.5q-115 0 -204 -50.5t-139.5 -140.5t-50.5 -209z" />
<glyph unicode="&#x432;" horiz-adv-x="1245" d="M207 0v1077h475q184 0 288.5 -71.5t104.5 -204.5q0 -88 -48 -150.5t-134 -93.5q219 -51 219 -264q0 -141 -104.5 -217t-311.5 -76h-489zM348 115h342q139 0 209 45t70 141t-63.5 142t-200.5 46h-357v-374zM348 598h324q125 0 191.5 47t66.5 137t-66.5 135.5t-191.5 45.5 h-324v-365z" />
<glyph unicode="&#x433;" horiz-adv-x="972" d="M207 0v1077h762v-129h-617v-948h-145z" />
<glyph unicode="&#x434;" horiz-adv-x="1333" d="M18 127h62q109 6 147.5 159.5t53.5 430.5l14 360h795v-950h167v-387h-137v260h-964v-260h-138v387zM272 127h672v821h-518l-12 -239q-11 -230 -39.5 -378.5t-102.5 -203.5z" />
<glyph unicode="&#x435;" horiz-adv-x="1265" d="M102 539q0 158 68.5 282.5t188.5 194t270 69.5t268.5 -69.5t186 -193.5t67.5 -283l-2 -45h-901q12 -168 128.5 -271.5t295.5 -103.5q100 0 184 35.5t145 105.5l82 -94q-72 -86 -179.5 -131t-236.5 -45q-166 0 -293.5 70.5t-199.5 195.5t-72 283zM248 602h764 q-14 160 -120 259.5t-263 99.5q-156 0 -261.5 -99.5t-119.5 -259.5z" />
<glyph unicode="&#x436;" horiz-adv-x="1691" d="M35 0l387 555l-356 522h157l316 -473h233v473h146v-473h233l317 473h158l-356 -524l387 -553h-174l-332 479h-233v-479h-146v479h-233l-330 -479h-174z" />
<glyph unicode="&#x437;" horiz-adv-x="1093" d="M61 121l50 108q74 -55 172 -85.5t198 -30.5q150 0 245 56t95 153q0 86 -77.5 134t-213.5 48h-184v106h176q121 0 195 46t74 124q0 86 -83 135.5t-216 49.5q-174 0 -345 -88l-41 112q193 100 400 101q123 0 222 -36t155.5 -101.5t56.5 -151.5q0 -82 -56.5 -145.5 t-152.5 -94.5q115 -26 177.5 -92t62.5 -160t-64.5 -167.5t-175 -113.5t-244.5 -40q-117 0 -229.5 33.5t-196.5 99.5z" />
<glyph unicode="&#x438;" horiz-adv-x="1409" d="M207 0v1077h145v-856l719 856h129v-1077h-145v856l-717 -856h-131z" />
<glyph unicode="&#x439;" horiz-adv-x="1409" d="M207 0v1077h145v-856l719 856h129v-1077h-145v856l-717 -856h-131zM391 1499h105q2 -80 57 -128t143 -48t144.5 48t58.5 128h105q-2 -127 -85 -196.5t-223 -69.5q-139 0 -221 69.5t-84 196.5z" />
<glyph unicode="&#x43a;" horiz-adv-x="1189" d="M207 0v1077h145v-473h248l379 473h158l-424 -522l454 -555h-172l-397 479h-246v-479h-145z" />
<glyph unicode="&#x43b;" horiz-adv-x="1294" d="M10 2l10 125q37 -8 52 -8q84 0 127 77.5t57 192.5t25 303l18 385h788v-1077h-145v948h-516l-14 -266q-16 -336 -78 -516t-219 -180q-43 0 -105 16z" />
<glyph unicode="&#x43c;" horiz-adv-x="1617" d="M207 0v1077h147l457 -776l465 776h135v-1077h-133v852l-436 -721h-66l-436 723v-854h-133z" />
<glyph unicode="&#x43d;" horiz-adv-x="1382" d="M207 0v1077h145v-477h678v477h146v-1077h-146v475h-678v-475h-145z" />
<glyph unicode="&#x43e;" horiz-adv-x="1302" d="M102 539q0 158 72 282.5t196.5 194t280.5 69.5t281 -69.5t195.5 -194.5t70.5 -282q0 -158 -70.5 -283t-195.5 -195.5t-281 -70.5t-280.5 70.5t-196.5 195.5t-72 283zM250 539q0 -123 52 -219.5t143 -148.5t206 -52t206 52t142 148.5t51 219.5t-51 219t-142 148t-206 52 t-206 -52t-143 -148t-52 -219z" />
<glyph unicode="&#x43f;" horiz-adv-x="1380" d="M207 0v1077h967v-1077h-146v948h-676v-948h-145z" />
<glyph unicode="&#x440;" horiz-adv-x="1404" d="M207 -397v1474h139v-213q66 106 173.5 163.5t242.5 57.5q151 0 274 -68.5t192.5 -193.5t69.5 -284q0 -162 -69.5 -287t-191.5 -193.5t-275 -68.5q-131 0 -236.5 54t-173.5 159v-600h-145zM350 539q0 -123 52.5 -219.5t143.5 -148.5t206 -52q112 0 204 52t144.5 148.5 t52.5 219.5t-52.5 218t-144.5 148t-204 53q-115 0 -206 -53t-143.5 -148t-52.5 -218z" />
<glyph unicode="&#x441;" horiz-adv-x="1153" d="M102 539q0 158 72 282.5t197.5 194t285.5 69.5q139 0 249 -54t173 -159l-108 -73q-53 80 -135.5 119.5t-178.5 39.5q-117 0 -210 -52t-145 -148t-52 -219q0 -125 52 -220.5t145 -147.5t210 -52q96 0 178 39t136 118l108 -73q-63 -104 -174 -158.5t-248 -54.5 q-160 0 -285.5 69.5t-197.5 195.5t-72 284z" />
<glyph unicode="&#x442;" horiz-adv-x="968" d="M4 948v129h961v-129h-408v-948h-145v948h-408z" />
<glyph unicode="&#x443;" horiz-adv-x="1142" d="M-37 -309l67 108q82 -82 197 -82q74 0 126 41t97 140l47 104l-481 1075h152l405 -915l406 915h143l-539 -1206q-66 -152 -151.5 -215.5t-206.5 -63.5q-78 0 -145.5 25t-116.5 74z" />
<glyph unicode="&#x444;" horiz-adv-x="1607" d="M100 541q0 250 165 391t466 153v435h141v-435q303 -14 469 -155.5t166 -388.5q0 -252 -165.5 -395.5t-469.5 -155.5v-387h-141v385q-301 12 -466 156.5t-165 396.5zM244 541q0 -193 124 -301.5t363 -122.5v839q-238 -12 -362.5 -119.5t-124.5 -295.5zM872 117 q240 12 366 120.5t126 303.5q0 190 -126 296.5t-366 118.5v-839z" />
<glyph unicode="&#x445;" horiz-adv-x="1077" d="M31 0l426 553l-406 524h164l324 -422l323 422h160l-405 -524l430 -553h-166l-342 451l-344 -451h-164z" />
<glyph unicode="&#x446;" horiz-adv-x="1400" d="M207 0v1077h145v-950h658v950h145v-950h174v-397h-137v270h-985z" />
<glyph unicode="&#x447;" horiz-adv-x="1226" d="M96 723v354h146v-346q0 -121 77.5 -183.5t215.5 -62.5q152 0 339 80v512h146v-1077h-146v449q-186 -82 -366 -82q-195 0 -303.5 89t-108.5 267z" />
<glyph unicode="&#x448;" horiz-adv-x="1902" d="M207 0v1077h145v-950h529v950h145v-950h522v950h146v-1077h-1487z" />
<glyph unicode="&#x449;" horiz-adv-x="1902" d="M207 0v1077h145v-950h529v950h145v-950h522v950h146v-1077h-1487zM1540 0v127h319v-363h-137v236h-182z" />
<glyph unicode="&#x44a;" horiz-adv-x="1271" d="M4 948v129h481v-377h310q198 0 302.5 -90t104.5 -254q0 -174 -112.5 -265t-323.5 -91h-426v948h-336zM485 113h279q143 0 217 61.5t74 181.5q0 233 -291 234h-279v-477z" />
<glyph unicode="&#x44b;" horiz-adv-x="1607" d="M207 0v1077h145v-377l307 -4q203 -2 309.5 -90t106.5 -254q0 -172 -114.5 -264t-327.5 -90zM352 113l273 -4q149 -3 226 59.5t77 183.5q0 119 -76 176.5t-227 59.5l-273 4v-479zM1255 0v1077h146v-1077h-146z" />
<glyph unicode="&#x44c;" horiz-adv-x="1153" d="M207 0v1077h145v-377l318 -4q202 -2 307.5 -90t105.5 -254q0 -172 -113.5 -264t-328.5 -90zM352 113l281 -4q149 -3 226 59.5t77 183.5q0 119 -76 176.5t-227 59.5l-281 4v-479z" />
<glyph unicode="&#x44d;" horiz-adv-x="1169" d="M61 152l86 86q137 -129 347 -129q117 0 212 49t155.5 137t70.5 197h-576v110h574q-23 162 -143.5 263.5t-292.5 101.5q-209 0 -347 -129l-86 84q78 80 191 121.5t248 41.5q162 0 292 -70.5t204.5 -195.5t74.5 -280q0 -156 -74.5 -282t-204.5 -197.5t-292 -71.5 q-135 0 -248 42t-191 122z" />
<glyph unicode="&#x44e;" horiz-adv-x="1771" d="M207 0v1077h145v-465h248q16 139 89 247t187.5 167t256.5 59q151 0 273 -69.5t191.5 -194.5t69.5 -282q0 -158 -69.5 -283t-191.5 -195.5t-273 -70.5q-143 0 -260 62.5t-190 173t-85 253.5h-246v-479h-145zM741 539q0 -123 51.5 -219.5t140.5 -149.5t200 -53 q110 0 199 53t140.5 149.5t51.5 219.5t-51.5 219t-140.5 148t-199 52q-111 0 -200 -52t-140.5 -148t-51.5 -219z" />
<glyph unicode="&#x44f;" horiz-adv-x="1241" d="M115 0l268 377q-125 35 -192.5 119t-67.5 213q0 180 123 274t336 94h452v-1077h-133v356h-338h-41l-250 -356h-157zM270 705q0 -240 305 -240h326v483h-315q-315 0 -316 -243z" />
<glyph unicode="&#x450;" horiz-adv-x="1265" d="M102 539q0 158 68.5 282.5t188.5 194t270 69.5t268.5 -69.5t186 -193.5t67.5 -283l-2 -45h-901q12 -168 128.5 -271.5t295.5 -103.5q100 0 184 35.5t145 105.5l82 -94q-72 -86 -179.5 -131t-236.5 -45q-166 0 -293.5 70.5t-199.5 195.5t-72 283zM248 602h764 q-14 160 -120 259.5t-263 99.5q-156 0 -261.5 -99.5t-119.5 -259.5zM287 1499h194l281 -254h-144z" />
<glyph unicode="&#x451;" horiz-adv-x="1265" d="M102 539q0 158 68.5 282.5t188.5 194t270 69.5t268.5 -69.5t186 -193.5t67.5 -283l-2 -45h-901q12 -168 128.5 -271.5t295.5 -103.5q100 0 184 35.5t145 105.5l82 -94q-72 -86 -179.5 -131t-236.5 -45q-166 0 -293.5 70.5t-199.5 195.5t-72 283zM248 602h764 q-14 160 -120 259.5t-263 99.5q-156 0 -261.5 -99.5t-119.5 -259.5zM358 1380q0 37 25.5 62.5t62.5 25.5q35 0 61.5 -25.5t26.5 -62.5t-25.5 -62.5t-62.5 -25.5t-62.5 24.5t-25.5 63.5zM723 1380q0 37 26.5 62.5t61.5 25.5q37 0 62.5 -25.5t25.5 -62.5q0 -39 -25.5 -63.5 t-62.5 -24.5t-62.5 25.5t-25.5 62.5z" />
<glyph unicode="&#x452;" horiz-adv-x="1374" d="M-14 1243v107h223v170h139v-170h510v-107h-510v-362q57 98 162.5 151t245.5 53q202 0 322 -117.5t120 -342.5v-705q0 -152 -82 -240t-231 -88q-70 0 -130.5 17.5t-99.5 52.5l52 111q66 -55 167 -56q86 0 132.5 51.5t46.5 151.5v690q0 168 -84 256t-238 88 q-174 0 -275.5 -103t-101.5 -286v-565h-145v1243h-223z" />
<glyph unicode="&#x453;" horiz-adv-x="972" d="M207 0v1077h762v-129h-617v-948h-145zM460 1239l281 254h195l-332 -254h-144z" />
<glyph unicode="&#x454;" horiz-adv-x="1171" d="M100 538q0 156 74.5 282t204.5 197.5t292 71.5q135 0 248 -42t191 -122l-86 -86q-137 129 -347 129q-117 0 -212 -49t-155.5 -137t-70.5 -197h576v-110h-574q23 -162 143.5 -263.5t292.5 -101.5q209 0 347 129l86 -84q-78 -80 -191 -121.5t-248 -41.5q-162 0 -292 70.5 t-204.5 195.5t-74.5 280z" />
<glyph unicode="&#x455;" horiz-adv-x="1081" d="M96 123l66 115q68 -53 170 -87t213 -34q147 0 218 46t71 130q0 59 -39 93t-98.5 51.5t-157.5 33.5q-131 25 -211 50.5t-136.5 87t-56.5 169.5q0 135 112.5 221t313.5 86q104 0 208.5 -27.5t172.5 -72.5l-63 -117q-133 92 -318 93q-139 0 -209.5 -49.5t-70.5 -129.5 q0 -61 39.5 -98t99 -54.5t164.5 -35.5q129 -25 206.5 -49.5t133 -84t55.5 -163.5q0 -141 -118 -224t-326 -83q-132 0 -251.5 38t-187.5 95z" />
<glyph unicode="&#x456;" horiz-adv-x="559" d="M174 1417q0 41 31 72t76 31t75.5 -30t30.5 -71q0 -45 -30.5 -75.5t-75.5 -30.5t-76 30.5t-31 73.5zM207 0v1077h145v-1077h-145z" />
<glyph unicode="&#x457;" horiz-adv-x="550" d="M55 1380q0 35 25 60.5t61 25.5q35 0 59.5 -24.5t24.5 -61.5q0 -39 -24.5 -63.5t-59.5 -24.5q-36 0 -61 25.5t-25 62.5zM203 0v1077h145v-1077h-145zM328 1380q0 35 24.5 60.5t59.5 25.5q37 0 61.5 -24.5t24.5 -61.5q0 -39 -24.5 -63.5t-61.5 -24.5q-35 0 -59.5 25.5 t-24.5 62.5z" />
<glyph unicode="&#x458;" horiz-adv-x="561" d="M-188 -338l51 111q63 -55 168 -56q86 0 132 51.5t46 151.5v1157h145v-1157q0 -152 -81.5 -240t-233.5 -88q-68 0 -128 17.5t-99 52.5zM176 1419q0 41 31 72t76 31t75.5 -30t30.5 -71q0 -45 -30.5 -75.5t-75.5 -30.5t-76 30.5t-31 73.5z" />
<glyph unicode="&#x459;" horiz-adv-x="1888" d="M10 2l10 125q37 -8 52 -8q84 0 127 77.5t57 192.5t25 303l18 385h788v-1077h-145v948h-516l-14 -266q-16 -336 -78 -516t-219 -180q-43 0 -105 16zM942 0v1077h145v-377l318 -4q202 -2 307.5 -90t105.5 -254q0 -172 -113.5 -264t-328.5 -90zM1087 113l281 -4 q149 -3 226 59.5t77 183.5q0 119 -76 176.5t-227 59.5l-281 4v-479z" />
<glyph unicode="&#x45a;" horiz-adv-x="1933" d="M207 0v1077h145v-434h656v434h145v-434h330q188 0 289.5 -81t101.5 -230q0 -156 -110.5 -244t-309.5 -88h-446v518h-656v-518h-145zM1153 111h297q131 0 203.5 55t72.5 158q0 98 -71.5 149t-204.5 51h-297v-413z" />
<glyph unicode="&#x45b;" horiz-adv-x="1372" d="M-68 1249v92h277v179h145v-179h510v-92h-510v-358q59 92 163 143t239 51q202 0 322 -117.5t120 -342.5v-625h-145v610q0 168 -84 256t-238 88q-174 0 -275.5 -103t-101.5 -286v-565h-145v1249h-277z" />
<glyph unicode="&#x45c;" horiz-adv-x="1189" d="M207 0v1077h145v-473h248l379 473h158l-424 -522l454 -555h-172l-397 479h-246v-479h-145zM479 1245l281 254h195l-332 -254h-144z" />
<glyph unicode="&#x45d;" horiz-adv-x="1409" d="M207 0v1077h145v-856l719 856h129v-1077h-145v856l-717 -856h-131zM355 1499h194l281 -254h-144z" />
<glyph unicode="&#x45e;" horiz-adv-x="1142" d="M-37 -309l67 108q82 -82 197 -82q74 0 126 41t97 140l47 104l-481 1075h152l405 -915l406 915h143l-539 -1206q-66 -152 -151.5 -215.5t-206.5 -63.5q-78 0 -145.5 25t-116.5 74zM235 1499h105q2 -80 57 -128t143 -48t144.5 48t58.5 128h105q-2 -127 -85 -196.5 t-223 -69.5q-139 0 -221 69.5t-84 196.5z" />
<glyph unicode="&#x45f;" horiz-adv-x="1308" d="M207 0v1077h145v-950h604v950h146v-1077h-377v-270h-139v270h-379z" />
<glyph unicode="&#x462;" horiz-adv-x="1642" d="M39 1153v115h389v252h150v-252h448v-115h-448v-238h456q254 0 386 -114.5t132 -333.5q0 -225 -142 -346t-409 -121h-573v1153h-389zM578 121h421q199 0 299.5 86t100.5 256q0 332 -400 332h-421v-674z" />
<glyph unicode="&#x463;" horiz-adv-x="1220" d="M4 1006v110h272v404h146v-404h403v-110h-403v-306l315 -4q203 -2 309.5 -90t106.5 -254q0 -172 -114.5 -264t-327.5 -90l-435 2v1006h-272zM422 113l280 -4q150 -3 227 59.5t77 183.5q0 119 -76 176.5t-228 59.5l-280 4v-479z" />
<glyph unicode="&#x46a;" horiz-adv-x="1810" d="M45 0l152 334q178 422 530 422h21l-541 573v105h1397v-99l-541 -579h22q354 0 531 -422l149 -334h-157l-129 295q-72 174 -179.5 260t-244.5 86h-78v-641h-141v641h-76q-289 0 -428 -346l-129 -295h-158zM379 1315l526 -559l527 559h-1053z" />
<glyph unicode="&#x46b;" horiz-adv-x="1392" d="M41 0l106 246q70 168 167.5 246.5t232.5 78.5h2l-389 410v96h1069v-96l-389 -410h8q135 0 232.5 -79.5t166.5 -245.5l107 -246h-146l-90 211q-49 131 -121.5 193.5t-175.5 62.5h-63v-467h-127v467h-56q-102 0 -176.5 -62.5t-124.5 -193.5l-88 -211h-145zM315 973 l379 -402l381 402h-760z" />
<glyph unicode="&#x472;" horiz-adv-x="1742" d="M116 717q0 207 97.5 372.5t270.5 261t386 95.5t384 -94.5t269.5 -261t98.5 -373.5t-98.5 -374t-269.5 -261t-384 -94t-386 95t-270.5 261t-97.5 373zM166 656v123h1416v-123h-1416zM266 717q0 -168 79 -304.5t217 -213t308 -76.5t307.5 76.5t215 213t77.5 304.5 t-77.5 304t-215 213t-307.5 77t-308 -77t-217 -213t-79 -304z" />
<glyph unicode="&#x473;" horiz-adv-x="1323" d="M102 539q0 158 72 282.5t200 194t288 69.5q159 0 286 -69.5t200 -194.5t73 -282q0 -158 -73 -283t-200 -195.5t-286 -70.5q-160 0 -288 70.5t-200 195.5t-72 283zM244 487q16 -170 132 -274t286 -104q169 0 285 104t132 274h-835zM244 592h835q-18 170 -133 273.5 t-284 103.5q-170 0 -286 -103.5t-132 -273.5z" />
<glyph unicode="&#x474;" horiz-adv-x="1531" d="M39 1434h164l502 -1217l327 905q59 170 143.5 250t208.5 80q53 0 125 -16l-18 -150q-45 12 -86 12q-88 0 -144.5 -62t-107.5 -202l-375 -1034h-149z" />
<glyph unicode="&#x475;" horiz-adv-x="1179" d="M20 1077h160l385 -891l248 660q49 129 107.5 186.5t144.5 57.5q43 0 109 -17l-17 -143q-41 12 -72 12q-49 0 -81.5 -41t-75.5 -149l-291 -752h-145z" />
<glyph unicode="&#x48a;" horiz-adv-x="1736" d="M242 0v1434h149v-1188l918 1188h137v-1303h203l-138 -453h-120l84 322h-179v1186l-917 -1186h-137zM506 1802h112q2 -82 61.5 -129t160.5 -47q98 0 158.5 47t62.5 129h113q-2 -125 -92.5 -194.5t-241.5 -69.5q-154 0 -243 69.5t-91 194.5z" />
<glyph unicode="&#x48b;" horiz-adv-x="1449" d="M207 0v1077h145v-856l719 856h129v-950h176l-112 -363h-119l65 236h-155v856l-717 -856h-131zM385 1499h102q2 -80 61.5 -127t147.5 -47t147.5 47t61.5 127h103q-4 -121 -92.5 -192.5t-219.5 -71.5t-219 71.5t-92 192.5z" />
<glyph unicode="&#x48c;" horiz-adv-x="1505" d="M68 1153v115h225v252h149v-252h457v-115h-457v-238h455q254 0 386 -114.5t132 -333.5q0 -225 -142.5 -346t-408.5 -121h-571v1153h-225zM442 121h422q199 0 299.5 86t100.5 256q0 332 -400 332h-422v-674z" />
<glyph unicode="&#x48d;" horiz-adv-x="1214" d="M47 829v109h223v139h146v-139h403v-109h-403v-147l317 -2q414 -6 414 -334q0 -172 -114.5 -262t-327.5 -86l-435 2v829h-223zM416 113l280 -4q150 -3 226.5 57.5t76.5 181.5q0 117 -73.5 168t-229.5 55l-280 2v-460z" />
<glyph unicode="&#x48e;" horiz-adv-x="1499" d="M242 0v1434h536q274 0 430 -131.5t156 -364.5q0 -141 -58.5 -246.5t-166.5 -167.5l200 -262l-86 -69l-219 286q-111 -37 -256 -37h-385v-442h-151zM393 573h381q102 1 172 21l-231 303l84 70l254 -332q160 94 159 303q0 176 -112.5 270.5t-325.5 94.5h-381v-730z" />
<glyph unicode="&#x48f;" horiz-adv-x="1427" d="M209 -397v1474h139v-260q59 129 171 198.5t261 69.5q147 0 266 -69.5t188 -194.5t69 -284q0 -129 -45.5 -235.5t-127.5 -180.5l144 -182l-84 -66l-146 184q-123 -68 -264 -67q-145 0 -255.5 66.5t-170.5 189.5v-643h-145zM352 537q0 -123 52.5 -219.5t144.5 -148.5 t207 -52q108 0 200 49l-157 201l86 67l159 -203q115 119 115 306q0 123 -52 219t-144.5 149t-206.5 53q-115 0 -207 -53t-144.5 -149.5t-52.5 -218.5z" />
<glyph unicode="&#x490;" horiz-adv-x="1177" d="M242 0v1434h770v295h141v-426h-762v-1303h-149z" />
<glyph unicode="&#x491;" horiz-adv-x="919" d="M207 0v1077h571v221h135v-350h-561v-948h-145z" />
<glyph unicode="&#x492;" horiz-adv-x="1245" d="M72 608v115h219v711h911v-131h-764v-580h619v-115h-617v-608h-149v608h-219z" />
<glyph unicode="&#x493;" horiz-adv-x="1028" d="M94 424v106h144v547h761v-129h-616v-418h471v-106h-471v-424h-145v424h-144z" />
<glyph unicode="&#x494;" horiz-adv-x="1435" d="M242 0v1434h952v-131h-803v-605q203 117 410 117q150 0 269.5 -63.5t188 -181t68.5 -279.5q0 -168 -69.5 -300t-192.5 -205t-277 -73q-51 0 -131 15l27 127q55 -10 98 -11q113 0 204 55.5t142.5 155t51.5 226.5t-54.5 219t-146.5 141t-209 49q-92 0 -188.5 -31.5 t-190.5 -95.5v-563h-149z" />
<glyph unicode="&#x495;" horiz-adv-x="1212" d="M207 0v1077h735v-129h-590v-461q168 88 336 88q131 0 237.5 -55t168 -162.5t61.5 -257.5q0 -152 -63.5 -266.5t-178 -178t-266.5 -63.5q-74 0 -145 15l33 127q61 -10 106 -10q168 0 267.5 100t99.5 270q0 176 -99.5 267.5t-249.5 91.5q-156 0 -307 -97v-356h-145z" />
<glyph unicode="&#x496;" horiz-adv-x="2154" d="M49 0l492 739l-455 695h164l412 -643h301v643h147v-643h297l414 643h164l-455 -695l491 -739h-176l-438 657h-297v-657h-147v657h-299l-439 -657h-176zM1845 0v131h281v-453h-142v322h-139z" />
<glyph unicode="&#x497;" horiz-adv-x="1765" d="M35 0l387 555l-356 522h157l316 -473h233v473h146v-473h233l317 473h158l-356 -524l387 -553h-174l-332 479h-233v-479h-146v479h-233l-330 -479h-174zM1483 0v125h271v-363h-134v238h-137z" />
<glyph unicode="&#x498;" horiz-adv-x="1302" d="M72 172l55 109q94 -80 215 -122t244 -42q117 0 215 36.5t156.5 105.5t58.5 163q0 125 -98.5 192.5t-276.5 67.5h-307v123h299q152 0 236.5 64.5t84.5 179.5q0 127 -108.5 199.5t-272.5 72.5q-102 0 -206.5 -29.5t-198.5 -89.5l-51 125q213 127 461 127q145 0 266 -47 t191.5 -135t70.5 -207q0 -115 -63.5 -198t-178.5 -117q142 -35 222.5 -127.5t80.5 -221.5q0 -125 -77.5 -219t-206.5 -144t-281 -50q-143 0 -281.5 46t-248.5 138zM547 39h139v-361h-139v361z" />
<glyph unicode="&#x499;" horiz-adv-x="1093" d="M61 121l50 108q74 -55 172 -85.5t198 -30.5q150 0 245 56t95 153q0 86 -77.5 134t-213.5 48h-184v106h176q121 0 195 46t74 124q0 86 -83 135.5t-216 49.5q-174 0 -345 -88l-41 112q193 100 400 101q123 0 222 -36t155.5 -101.5t56.5 -151.5q0 -82 -56.5 -145.5 t-152.5 -94.5q115 -27 177.5 -92.5t62.5 -159.5q0 -129 -113 -215t-287 -102v-228h-137v226q-104 6 -201.5 39.5t-171.5 91.5z" />
<glyph unicode="&#x49a;" horiz-adv-x="1531" d="M242 0v1434h147v-643h328l485 643h164l-532 -697l563 -737h-174l-506 657h-328v-657h-147zM1223 0v131h281v-453h-142v322h-139z" />
<glyph unicode="&#x49b;" horiz-adv-x="1189" d="M207 0v1077h145v-473h248l379 473h158l-424 -522l454 -555h-172l-397 479h-246v-479h-145zM995 0v125h271v-363h-134v238h-137z" />
<glyph unicode="&#x49c;" horiz-adv-x="1490" d="M242 0v1434h147v-643h176v311h117v-311h121l438 643h164l-483 -699l522 -735h-176l-465 657h-121v-307h-117v307h-176v-657h-147z" />
<glyph unicode="&#x49d;" horiz-adv-x="1222" d="M203 0v1077h145v-473h131v221h109v-221h84l332 473h155l-375 -522l408 -555h-172l-348 479h-84v-217h-109v217h-131v-479h-145z" />
<glyph unicode="&#x49e;" horiz-adv-x="1482" d="M76 1130v111h211v193h147v-193h375v-111h-375v-339h328l485 643h164l-532 -697l563 -737h-174l-506 657h-328v-657h-147v1130h-211z" />
<glyph unicode="&#x49f;" horiz-adv-x="1189" d="M2 1243v109h207v168h145v-170h324v-107h-324v-639h246l379 473h160l-426 -522l454 -555h-172l-397 479h-244v-479h-145v1243h-207z" />
<glyph unicode="&#x4a0;" horiz-adv-x="1665" d="M23 1303v131h595v-643h328l484 643h163l-532 -697l563 -737h-172l-508 657h-326v-657h-147v1303h-448z" />
<glyph unicode="&#x4a1;" horiz-adv-x="1323" d="M4 950v127h481v-473h248l379 473h158l-424 -522l454 -555h-172l-397 479h-246v-479h-145v950h-336z" />
<glyph unicode="&#x4a2;" horiz-adv-x="1730" d="M241 0v1434h152v-639h897v639h150v-1434h-150v662h-897v-662h-152zM1294 0v131h375v-453h-141v322h-234z" />
<glyph unicode="&#x4a3;" horiz-adv-x="1421" d="M207 0v1077h145v-477h678v477h146v-1077h-146v475h-678v-475h-145zM1030 0v127h319v-363h-137v236h-182z" />
<glyph unicode="&#x4a4;" horiz-adv-x="2228" d="M241 0v1434h152v-639h897v639h150v-1434h-150v662h-897v-662h-152zM1295 0v1434h911v-131h-764l2 -1303h-149z" />
<glyph unicode="&#x4a5;" horiz-adv-x="1796" d="M207 0v1077h145v-477h678v477h146v-1077h-146v475h-678v-475h-145zM1030 0v1077h762v-129h-617v-948h-145z" />
<glyph unicode="&#x4a6;" horiz-adv-x="2465" d="M242 0v1434h1206v-729q204 112 401 112q150 0 269.5 -63.5t189.5 -183t70 -279.5q0 -166 -71 -298t-193.5 -206t-272.5 -74q-70 0 -135 15l27 127q53 -12 100 -13q113 0 203 55.5t141 156t51 227.5t-53 219t-145.5 141t-206.5 49q-188 0 -375 -123v-567h-150v1303h-907 v-1303h-149z" />
<glyph unicode="&#x4a7;" horiz-adv-x="1984" d="M207 0v1077h934v-585q167 83 327 83q131 0 237.5 -55t169 -162.5t62.5 -257.5q0 -152 -63.5 -266.5t-179 -178t-267.5 -63.5q-74 0 -145 15l31 127q61 -10 108 -10q168 0 267.5 100t99.5 270q0 176 -99.5 267.5t-248.5 91.5q-156 0 -299 -91v-362h-146v948h-643v-948 h-145z" />
<glyph unicode="&#x4a8;" horiz-adv-x="1990" d="M129 750q0 223 99.5 408t277.5 296l112 -74q-160 -100 -248.5 -268t-88.5 -367q0 -190 82.5 -337.5t232 -228.5t344.5 -81q78 0 147 13q-172 111 -271 295t-99 409q0 188 70.5 335.5t196.5 228.5t290 81q160 0 282.5 -77.5t191.5 -217t69 -319.5q0 -233 -115 -427 t-309 -308q82 -20 180 -21q127 0 246 35l18 -115q-137 -37 -268 -37q-176 0 -336 64q-150 -53 -320 -53q-229 0 -407 97t-277.5 271t-99.5 398zM868 815q0 -225 103.5 -397t279.5 -256q190 82 302 259t112 408q0 147 -49 259t-138 173.5t-206 61.5q-121 0 -212 -62.5 t-141.5 -178t-50.5 -267.5z" />
<glyph unicode="&#x4a9;" horiz-adv-x="1626" d="M106 567q0 166 78 305.5t217 221.5l111 -68q-125 -80 -192.5 -199.5t-67.5 -263.5q0 -137 63.5 -243.5t180 -165t268.5 -58.5q47 0 90 6q-125 86 -196.5 218.5t-71.5 291.5q0 143 56 253t159.5 170.5t236.5 60.5q129 0 228.5 -57.5t155 -161t55.5 -238.5 q0 -168 -84 -310.5t-232 -230.5q49 -10 121 -10q96 0 195 25l12 -109q-115 -29 -217 -29q-145 0 -273 50q-127 -39 -256 -39q-188 0 -332.5 72.5t-224.5 204.5t-80 304zM729 614q0 -159 78 -282t211 -187q145 61 230 189.5t85 296.5q0 152 -83 247t-214 95 q-137 0 -222 -98.5t-85 -260.5z" />
<glyph unicode="&#x4aa;" horiz-adv-x="1466" d="M118 717q0 207 97.5 373.5t269.5 261t385 94.5q160 0 295 -53.5t229 -155.5l-96 -96q-168 170 -424 170q-170 0 -309 -78t-218 -213t-79 -303t79 -303t218 -213t309 -78q258 0 424 172l96 -96q-94 -102 -230 -156.5t-296 -54.5q-213 0 -384 94t-268.5 261t-97.5 374z M770 39h139v-361h-139v361z" />
<glyph unicode="&#x4ab;" horiz-adv-x="1153" d="M102 539q0 158 72 282.5t197.5 194t285.5 69.5q139 0 249 -54t173 -159l-108 -73q-53 80 -135.5 119.5t-178.5 39.5q-117 0 -210 -52t-145 -148t-52 -219q0 -125 52 -220.5t145 -147.5t210 -52q96 0 178 39t136 118l108 -73q-63 -104 -174 -158.5t-248 -54.5 q-160 0 -285.5 69.5t-197.5 195.5t-72 284zM578 35h137v-271h-137v271z" />
<glyph unicode="&#x4ac;" horiz-adv-x="1204" d="M23 1303v131h1157v-131h-504v-1303h-150v1303h-503zM526 0v131h375v-453h-141v322h-234z" />
<glyph unicode="&#x4ad;" horiz-adv-x="968" d="M4 948v129h961v-129h-408v-948h-145v948h-408zM412 0v127h319v-363h-137v236h-182z" />
<glyph unicode="&#x4ae;" horiz-adv-x="1335" d="M18 1434h162l491 -805l492 805h151l-573 -938v-496h-150v496z" />
<glyph unicode="&#x4af;" horiz-adv-x="1144" d="M20 1077h154l401 -917l408 917h143l-481 -1083v-391h-145v391z" />
<glyph unicode="&#x4b0;" horiz-adv-x="1300" d="M2 1434h162l491 -805l492 805h151l-573 -938v-496h-150v496zM187 448v114h921v-114h-921z" />
<glyph unicode="&#x4b1;" horiz-adv-x="1144" d="M20 1077h154l401 -917l408 917h143l-481 -1083v-391h-145v391zM150 -43v106h845v-106h-845z" />
<glyph unicode="&#x4b2;" horiz-adv-x="1413" d="M45 0l526 739l-489 695h174l408 -568l405 568h178l-489 -689l528 -745h-178l-444 616l-445 -616h-174zM1108 0v131h281v-453h-142v322h-139z" />
<glyph unicode="&#x4b3;" horiz-adv-x="1077" d="M31 0l426 553l-406 524h164l324 -422l323 422h160l-405 -524l430 -553h-166l-342 451l-344 -451h-164zM878 0v125h271v-363h-134v238h-137z" />
<glyph unicode="&#x4b4;" horiz-adv-x="1980" d="M25 1303v131h1112v-131h-459v-1174h866v1303h150v-1303h227v-467h-141v336h-1252v1305h-503z" />
<glyph unicode="&#x4b5;" horiz-adv-x="1550" d="M4 948v129h901v-129h-348v-821h606v950h146v-950h159v-363h-137v236h-919v948h-408z" />
<glyph unicode="&#x4b6;" horiz-adv-x="1546" d="M121 961v473h149v-457q0 -166 104.5 -258t293.5 -92q215 0 438 102v705h147v-1434h-147v594q-233 -100 -453 -100q-252 0 -392 122.5t-140 344.5zM1106 0v131h375v-453h-141v322h-234z" />
<glyph unicode="&#x4b7;" horiz-adv-x="1269" d="M96 723v354h146v-346q0 -121 77.5 -183.5t215.5 -62.5q152 0 339 80v512h146v-1077h-146v449q-186 -82 -366 -82q-195 0 -303.5 89t-108.5 267zM875 0v127h319v-363h-137v236h-182z" />
<glyph unicode="&#x4b8;" horiz-adv-x="1497" d="M119 961v473h149v-457q0 -156 92.5 -247t257.5 -101v309h115v-309q190 16 371 100v705h147v-1434h-147v594q-182 -80 -371 -96v-310h-115v306q-238 10 -368.5 132t-130.5 335z" />
<glyph unicode="&#x4b9;" horiz-adv-x="1226" d="M94 723v354h146v-346q0 -113 68.5 -175t193.5 -71v236h106v-232q119 14 264 76v512h146v-1077h-146v449q-129 -57 -264 -76v-221h-106v215q-193 2 -300.5 91t-107.5 265z" />
<glyph unicode="&#x4ba;" horiz-adv-x="1497" d="M242 0v1434h149v-594q233 100 451 100q254 0 394 -122t140 -345v-473h-149v457q0 168 -105.5 259t-294.5 91q-213 0 -436 -102v-705h-149z" />
<glyph unicode="&#x4bb;" horiz-adv-x="1372" d="M207 0v1520h145v-631q59 94 163.5 145t240.5 51q202 0 322 -117.5t120 -342.5v-625h-145v610q0 168 -84 256t-240 88q-174 0 -275.5 -103t-101.5 -286v-565h-145z" />
<glyph unicode="&#x4bc;" horiz-adv-x="1994" d="M70 944q0 111 61 221l139 -30q-57 -84 -57 -174q0 -84 54.5 -138.5t152.5 -54.5h37q12 201 112.5 354.5t262 238.5t352.5 85q199 0 363.5 -91t262 -257t97.5 -377q0 -8 -6 -82h-1291q16 -154 99.5 -271.5t211.5 -181t273 -63.5q119 0 235.5 45t221.5 133l110 -98 q-125 -109 -272.5 -162t-296.5 -53q-184 0 -346 78.5t-266.5 227t-120.5 345.5h-58q-158 0 -244.5 87t-86.5 218zM608 768h1143q-10 160 -88 284t-203 192.5t-276 68.5q-152 0 -279 -68.5t-205.5 -192.5t-91.5 -284z" />
<glyph unicode="&#x4bd;" horiz-adv-x="1540" d="M47 711q0 80 49 172l123 -31q-43 -63 -43 -123q0 -57 42 -92t120 -35h29q12 141 85.5 251t191.5 171t263 61q154 0 278 -69.5t193.5 -193.5t69.5 -283q0 -12 -4 -45h-934q14 -168 136 -271.5t304 -103.5q104 0 192.5 35.5t149.5 105.5l84 -94q-74 -86 -184.5 -131 t-245.5 -45q-162 0 -290 64.5t-204.5 179t-86.5 260.5h-43q-131 0 -203 59t-72 158zM510 602h793q-12 158 -123 258.5t-273 100.5t-271.5 -99.5t-125.5 -259.5z" />
<glyph unicode="&#x4be;" horiz-adv-x="1994" d="M70 944q0 111 61 221l139 -30q-57 -84 -57 -174q0 -84 54.5 -138.5t152.5 -54.5h37q12 201 112.5 354.5t262 238.5t352.5 85q199 0 363.5 -91t262 -257t97.5 -377q0 -8 -6 -82h-1291q16 -154 99.5 -271.5t211.5 -181t273 -63.5q119 0 235.5 45t221.5 133l110 -98 q-125 -109 -272.5 -162t-296.5 -53q-184 0 -346 78.5t-266.5 227t-120.5 345.5h-58q-158 0 -244.5 87t-86.5 218zM608 768h1143q-10 160 -88 284t-203 192.5t-276 68.5q-152 0 -279 -68.5t-205.5 -192.5t-91.5 -284zM1124 39h139v-361h-139v361z" />
<glyph unicode="&#x4bf;" horiz-adv-x="1540" d="M47 711q0 80 49 172l123 -31q-43 -63 -43 -123q0 -57 42 -92t120 -35h29q12 141 85.5 251t191.5 171t263 61q154 0 278 -69.5t193.5 -193.5t69.5 -283q0 -12 -4 -45h-934q14 -168 136 -271.5t304 -103.5q104 0 192.5 35.5t149.5 105.5l84 -94q-74 -86 -184.5 -131 t-245.5 -45q-162 0 -290 64.5t-204.5 179t-86.5 260.5h-43q-131 0 -203 59t-72 158zM510 602h793q-12 158 -123 258.5t-273 100.5t-271.5 -99.5t-125.5 -259.5zM852 35h137v-271h-137v271z" />
<glyph unicode="&#x4c0;" horiz-adv-x="634" d="M241 0v1434h152v-1434h-152z" />
<glyph unicode="&#x4c1;" horiz-adv-x="2070" d="M49 0l492 739l-455 695h164l412 -643h301v643h147v-643h297l414 643h164l-455 -695l491 -739h-176l-438 657h-297v-657h-147v657h-299l-439 -657h-176zM705 1802h113q2 -82 61 -129t160 -47q98 0 158.5 47t62.5 129h113q-2 -125 -92.5 -194.5t-241.5 -69.5 q-154 0 -243 69.5t-91 194.5z" />
<glyph unicode="&#x4c2;" horiz-adv-x="1691" d="M35 0l387 555l-356 522h157l316 -473h233v473h146v-473h233l317 473h158l-356 -524l387 -553h-174l-332 479h-233v-479h-146v479h-233l-330 -479h-174zM540 1499h105q2 -80 57 -128t143 -48t144.5 48t58.5 128h105q-2 -127 -85 -196.5t-223 -69.5q-139 0 -221 69.5 t-84 196.5z" />
<glyph unicode="&#x4c3;" horiz-adv-x="1437" d="M242 0v1434h147v-643h330l481 643h164l-528 -699q254 -231 398 -446t144 -379q0 -147 -85 -233.5t-226 -86.5q-117 0 -229 60l43 117q86 -45 157 -46q82 0 130.5 50.5t48.5 142.5q0 141 -140.5 346t-361.5 397h-326v-657h-147z" />
<glyph unicode="&#x4c4;" horiz-adv-x="1189" d="M207 0v1077h145v-473h248l379 473h158l-414 -510q190 -157 301 -336.5t111 -332.5q0 -137 -85 -221.5t-225 -84.5q-111 0 -225 60l43 110q88 -47 162 -47q84 0 134 51.5t50 137.5q0 125 -101.5 283.5t-264.5 291.5h-271v-479h-145z" />
<glyph unicode="&#x4c6;" horiz-adv-x="1335" d="M10 2l10 125q37 -8 52 -8q84 0 127 77.5t57 192.5t25 303l18 385h788v-950h177l-113 -363h-119l66 236h-156v948h-516l-14 -266q-16 -336 -78 -516t-219 -180q-43 0 -105 16z" />
<glyph unicode="&#x4c7;" horiz-adv-x="1671" d="M242 0v1434h149v-648h889v648h150v-1540q0 -145 -91.5 -224.5t-222.5 -79.5q-125 0 -231 72l49 111q78 -55 164 -56q78 0 130 48.5t52 136.5v751h-889v-653h-149z" />
<glyph unicode="&#x4c8;" horiz-adv-x="1396" d="M207 0v1077h145v-477h692v477h146v-1165q0 -147 -81 -233.5t-228 -86.5q-70 0 -130.5 17.5t-99.5 52.5l49 111q61 -55 162 -56q88 0 135 52.5t47 150.5v555h-692v-475h-145z" />
<glyph unicode="&#x4c9;" horiz-adv-x="1730" d="M242 0v1434h151v-639h897v639h150v-1303h207l-138 -453h-120l84 322h-183v662h-897v-662h-151z" />
<glyph unicode="&#x4ca;" horiz-adv-x="1423" d="M207 0v1077h145v-477h678v477h146v-950h176l-113 -363h-119l66 236h-156v475h-678v-475h-145z" />
<glyph unicode="&#x4cb;" horiz-adv-x="1490" d="M119 977v457h147v-441q0 -162 104.5 -251t293.5 -89q207 0 436 103v678h149v-1434h-254v-322h-141v453h246v490q-236 -100 -449 -101q-254 0 -393 120t-139 337z" />
<glyph unicode="&#x4cc;" horiz-adv-x="1222" d="M90 745v332h146v-323q0 -119 77.5 -181.5t216.5 -62.5q164 0 340 78v489h146v-1077h-195v-236h-139v357h188v352q-184 -84 -368 -84q-195 0 -303.5 90t-108.5 266z" />
<glyph unicode="&#x4cd;" horiz-adv-x="2031" d="M242 0v1434h125l622 -1063l617 1063h125v-1303h217l-138 -453h-120l84 322h-189v1147l-563 -965h-72l-563 959v-1141h-145z" />
<glyph unicode="&#x4ce;" horiz-adv-x="1671" d="M207 0v1077h147l457 -776l465 776h135v-950h188l-112 -363h-119l66 236h-156v852l-436 -721h-66l-436 723v-854h-133z" />
<glyph unicode="&#x4cf;" horiz-adv-x="561" d="M207 0v1520h145v-1520h-145z" />
<glyph unicode="&#x4d0;" horiz-adv-x="1523" d="M31 0l655 1434h150l655 -1434h-159l-172 383h-799l-172 -383h-158zM416 506h688l-344 770zM428 1802h113q2 -82 61 -129t160 -47q98 0 158.5 47t62.5 129h113q-2 -125 -92.5 -194.5t-241.5 -69.5q-154 0 -243 69.5t-91 194.5z" />
<glyph unicode="&#x4d1;" horiz-adv-x="1193" d="M111 303q0 137 99 221t316 84h342v66q0 139 -77.5 211.5t-227.5 72.5q-102 0 -196.5 -33.5t-161.5 -93.5l-66 109q82 70 197 107.5t242 37.5q211 0 323.5 -105.5t112.5 -311.5v-668h-139v168q-49 -84 -144.5 -131t-226.5 -47q-180 0 -286.5 86t-106.5 227zM254 307 q0 -94 71.5 -148.5t200.5 -54.5q123 0 211 56.5t131 163.5v176h-338q-276 0 -276 -193zM276 1499h105q2 -80 57 -128t143 -48t144.5 48t58.5 128h105q-2 -127 -85 -196.5t-223 -69.5q-139 0 -221 69.5t-84 196.5z" />
<glyph unicode="&#x4d2;" horiz-adv-x="1523" d="M31 0l655 1434h150l655 -1434h-159l-172 383h-799l-172 -383h-158zM416 506h688l-344 770zM491 1686q0 37 25.5 62.5t62.5 25.5q35 0 61.5 -26t26.5 -62q0 -37 -25.5 -63t-62.5 -26t-62.5 25t-25.5 64zM856 1686q0 37 26.5 62.5t61.5 25.5q37 0 62.5 -26t25.5 -62 q0 -39 -25.5 -64t-62.5 -25t-62.5 26t-25.5 63z" />
<glyph unicode="&#x4d3;" horiz-adv-x="1193" d="M111 303q0 137 99 221t316 84h342v66q0 139 -77.5 211.5t-227.5 72.5q-102 0 -196.5 -33.5t-161.5 -93.5l-66 109q82 70 197 107.5t242 37.5q211 0 323.5 -105.5t112.5 -311.5v-668h-139v168q-49 -84 -144.5 -131t-226.5 -47q-180 0 -286.5 86t-106.5 227zM254 307 q0 -94 71.5 -148.5t200.5 -54.5q123 0 211 56.5t131 163.5v176h-338q-276 0 -276 -193zM311 1380q0 37 25.5 62.5t62.5 25.5q35 0 61.5 -25.5t26.5 -62.5t-25.5 -62.5t-62.5 -25.5t-62.5 24.5t-25.5 63.5zM676 1380q0 37 26.5 62.5t61.5 25.5q37 0 62.5 -25.5t25.5 -62.5 q0 -39 -25.5 -63.5t-62.5 -24.5t-62.5 25.5t-25.5 62.5z" />
<glyph unicode="&#x4d4;" horiz-adv-x="2101" d="M18 0l875 1434h1083v-131h-832v-510h744v-129h-744v-533h863v-131h-1012v383h-588l-231 -383h-158zM481 506h514v797h-31z" />
<glyph unicode="&#x4d5;" horiz-adv-x="2027" d="M111 307q0 131 99 215t316 84h342v68q0 139 -77.5 211.5t-227.5 72.5q-102 0 -196.5 -33.5t-161.5 -93.5l-66 109q82 70 197 107.5t240 37.5q311 0 395 -221q70 104 181.5 162.5t246.5 58.5q150 0 269.5 -69.5t187 -192.5t67.5 -276q0 -16 -4 -49h-903 q10 -170 127 -274.5t297 -104.5q205 0 330 141l81 -94q-74 -86 -180 -131t-235 -45q-156 0 -281 62.5t-201 185.5q-57 -127 -173.5 -187.5t-262.5 -60.5q-190 0 -298.5 87t-108.5 230zM254 311q0 -96 72.5 -151.5t201.5 -55.5q156 0 248 83t92 225v86h-338 q-145 0 -210.5 -50.5t-65.5 -136.5zM1016 606h764q-10 106 -63.5 187t-137.5 124.5t-182 43.5q-96 0 -179 -43.5t-137.5 -123t-64.5 -188.5z" />
<glyph unicode="&#x4d6;" horiz-adv-x="1349" d="M241 0v1434h984v-131h-832v-510h741v-129h-741v-533h862v-131h-1014zM401 1802h113q2 -82 61 -129t160 -47q98 0 158.5 47t62.5 129h113q-2 -125 -92.5 -194.5t-241.5 -69.5q-154 0 -243 69.5t-91 194.5z" />
<glyph unicode="&#x4d7;" horiz-adv-x="1265" d="M102 539q0 158 68.5 282.5t188.5 194t270 69.5t268.5 -69.5t186 -193.5t67.5 -283l-2 -45h-901q12 -168 128.5 -271.5t295.5 -103.5q100 0 184 35.5t145 105.5l82 -94q-72 -86 -179.5 -131t-236.5 -45q-166 0 -293.5 70.5t-199.5 195.5t-72 283zM248 602h764 q-14 160 -120 259.5t-263 99.5q-156 0 -261.5 -99.5t-119.5 -259.5zM323 1499h105q2 -80 57 -128t143 -48t144.5 48t58.5 128h105q-2 -127 -85 -196.5t-223 -69.5q-139 0 -221 69.5t-84 196.5z" />
<glyph unicode="&#x4d8;" horiz-adv-x="1687" d="M88 713q0 37 6 73h1319q-16 158 -101 277t-216 183.5t-283 64.5q-123 0 -241.5 -44t-225.5 -134l-108 98q127 109 276.5 162t302.5 53q201 0 373 -88t275.5 -253t103.5 -384q0 -215 -100.5 -382t-271.5 -259t-374 -92t-370.5 91t-266 257t-98.5 377zM242 674 q8 -162 88 -288t209 -195.5t284 -69.5q156 0 288 70.5t213 196.5t91 286h-1173z" />
<glyph unicode="&#x4d9;" horiz-adv-x="1263" d="M113 539l2 45h901q-12 168 -129 271t-295 103q-100 0 -184 -35.5t-146 -105.5l-82 94q72 86 179.5 131t236.5 45q166 0 294 -70.5t199.5 -195.5t71.5 -282q0 -158 -68.5 -283t-188.5 -194.5t-269 -69.5q-150 0 -268.5 69.5t-186 193.5t-67.5 284zM252 475 q14 -160 119.5 -259t263.5 -99q156 0 261 99t120 259h-764z" />
<glyph unicode="&#x4da;" horiz-adv-x="1687" d="M88 713q0 37 6 73h1319q-16 158 -101 277t-216 183.5t-283 64.5q-123 0 -241.5 -44t-225.5 -134l-108 98q127 109 276.5 162t302.5 53q201 0 373 -88t275.5 -253t103.5 -384q0 -215 -100.5 -382t-271.5 -259t-374 -92t-370.5 91t-266 257t-98.5 377zM242 674 q8 -162 88 -288t209 -195.5t284 -69.5q156 0 288 70.5t213 196.5t91 286h-1173zM575 1686q0 37 25.5 62.5t62.5 25.5q35 0 61.5 -26t26.5 -62q0 -37 -25.5 -63t-62.5 -26t-62.5 25t-25.5 64zM940 1686q0 37 26.5 62.5t61.5 25.5q37 0 62.5 -26t25.5 -62q0 -39 -25.5 -64 t-62.5 -25t-62.5 26t-25.5 63z" />
<glyph unicode="&#x4db;" horiz-adv-x="1263" d="M113 539l2 45h901q-12 168 -129 271t-295 103q-100 0 -184 -35.5t-146 -105.5l-82 94q72 86 179.5 131t236.5 45q166 0 294 -70.5t199.5 -195.5t71.5 -282q0 -158 -68.5 -283t-188.5 -194.5t-269 -69.5q-150 0 -268.5 69.5t-186 193.5t-67.5 284zM252 475 q14 -160 119.5 -259t263.5 -99q156 0 261 99t120 259h-764zM364 1380q0 37 25.5 62.5t62.5 25.5q35 0 61.5 -25.5t26.5 -62.5t-25.5 -62.5t-62.5 -25.5t-62.5 24.5t-25.5 63.5zM729 1380q0 37 26.5 62.5t61.5 25.5q37 0 62.5 -25.5t25.5 -62.5q0 -39 -25.5 -63.5 t-62.5 -24.5t-62.5 25.5t-25.5 62.5z" />
<glyph unicode="&#x4dc;" horiz-adv-x="2070" d="M49 0l492 739l-455 695h164l412 -643h301v643h147v-643h297l414 643h164l-455 -695l491 -739h-176l-438 657h-297v-657h-147v657h-299l-439 -657h-176zM768 1686q0 37 25.5 62.5t62.5 25.5q35 0 61.5 -26t26.5 -62q0 -37 -25.5 -63t-62.5 -26t-62.5 25t-25.5 64z M1133 1686q0 37 26.5 62.5t61.5 25.5q37 0 62.5 -26t25.5 -62q0 -39 -25.5 -64t-62.5 -25t-62.5 26t-25.5 63z" />
<glyph unicode="&#x4dd;" horiz-adv-x="1691" d="M35 0l387 555l-356 522h157l316 -473h233v473h146v-473h233l317 473h158l-356 -524l387 -553h-174l-332 479h-233v-479h-146v479h-233l-330 -479h-174zM575 1380q0 37 25.5 62.5t62.5 25.5q35 0 61.5 -25.5t26.5 -62.5t-25.5 -62.5t-62.5 -25.5t-62.5 24.5t-25.5 63.5z M940 1380q0 37 26.5 62.5t61.5 25.5q37 0 62.5 -25.5t25.5 -62.5q0 -39 -25.5 -63.5t-62.5 -24.5t-62.5 25.5t-25.5 62.5z" />
<glyph unicode="&#x4de;" horiz-adv-x="1302" d="M72 172l55 109q94 -80 215 -122t244 -42q117 0 215 36.5t156.5 105.5t58.5 163q0 125 -98.5 192.5t-276.5 67.5h-307v123h299q152 0 236.5 64.5t84.5 179.5q0 127 -108.5 199.5t-272.5 72.5q-102 0 -206.5 -29.5t-198.5 -89.5l-51 125q213 127 461 127q145 0 266 -47 t191.5 -135t70.5 -207q0 -115 -63.5 -198t-178.5 -117q142 -35 222.5 -127.5t80.5 -221.5q0 -125 -77.5 -219t-206.5 -144t-281 -50q-143 0 -281.5 46t-248.5 138zM377 1686q0 37 25.5 62.5t62.5 25.5q35 0 61.5 -26t26.5 -62q0 -37 -25.5 -63t-62.5 -26t-62.5 25t-25.5 64z M742 1686q0 37 26.5 62.5t61.5 25.5q37 0 62.5 -26t25.5 -62q0 -39 -25.5 -64t-62.5 -25t-62.5 26t-25.5 63z" />
<glyph unicode="&#x4df;" horiz-adv-x="1093" d="M61 121l50 108q74 -55 172 -85.5t198 -30.5q150 0 245 56t95 153q0 86 -77.5 134t-213.5 48h-184v106h176q121 0 195 46t74 124q0 86 -83 135.5t-216 49.5q-174 0 -345 -88l-41 112q193 100 400 101q123 0 222 -36t155.5 -101.5t56.5 -151.5q0 -82 -56.5 -145.5 t-152.5 -94.5q115 -26 177.5 -92t62.5 -160t-64.5 -167.5t-175 -113.5t-244.5 -40q-117 0 -229.5 33.5t-196.5 99.5zM254 1380q0 37 25.5 62.5t62.5 25.5q35 0 61.5 -25.5t26.5 -62.5t-25.5 -62.5t-62.5 -25.5t-62.5 24.5t-25.5 63.5zM619 1380q0 37 26.5 62.5t61.5 25.5 q37 0 62.5 -25.5t25.5 -62.5q0 -39 -25.5 -63.5t-62.5 -24.5t-62.5 25.5t-25.5 62.5z" />
<glyph unicode="&#x4e0;" horiz-adv-x="1259" d="M66 168l59 119q74 -74 201 -120t274 -46q188 0 291.5 76.5t103.5 214.5q0 135 -103.5 210.5t-309.5 75.5h-107v107l430 500h-786v129h964v-105l-436 -510q244 -8 372 -118.5t128 -288.5q0 -123 -61.5 -219.5t-183.5 -150.5t-298 -54q-168 0 -313.5 49t-224.5 131z" />
<glyph unicode="&#x4e1;" horiz-adv-x="1052" d="M-45 -221l59 119q70 -78 189 -125t256 -47q178 0 274 79.5t96 219.5q0 141 -96 220t-291 79h-102v104l405 518h-741v131h916v-106l-410 -527q229 -10 349 -122.5t120 -296.5q0 -125 -58.5 -223.5t-175 -155t-282.5 -56.5q-156 0 -293 51.5t-215 137.5z" />
<glyph unicode="&#x4e2;" horiz-adv-x="1687" d="M242 0v1434h149v-1188l918 1188h137v-1434h-150v1186l-917 -1186h-137zM524 1628v96h631v-96h-631z" />
<glyph unicode="&#x4e3;" horiz-adv-x="1409" d="M207 0v1077h145v-856l719 856h129v-1077h-145v856l-717 -856h-131zM381 1323v96h631v-96h-631z" />
<glyph unicode="&#x4e4;" horiz-adv-x="1687" d="M242 0v1434h149v-1188l918 1188h137v-1434h-150v1186l-917 -1186h-137zM569 1686q0 37 25.5 62.5t62.5 25.5q35 0 61.5 -26t26.5 -62q0 -37 -25.5 -63t-62.5 -26t-62.5 25t-25.5 64zM934 1686q0 37 26.5 62.5t61.5 25.5q37 0 62.5 -26t25.5 -62q0 -39 -25.5 -64 t-62.5 -25t-62.5 26t-25.5 63z" />
<glyph unicode="&#x4e5;" horiz-adv-x="1409" d="M207 0v1077h145v-856l719 856h129v-1077h-145v856l-717 -856h-131zM426 1380q0 37 25.5 62.5t62.5 25.5q35 0 61.5 -25.5t26.5 -62.5t-25.5 -62.5t-62.5 -25.5t-62.5 24.5t-25.5 63.5zM791 1380q0 37 26.5 62.5t61.5 25.5q37 0 62.5 -25.5t25.5 -62.5q0 -39 -25.5 -63.5 t-62.5 -24.5t-62.5 25.5t-25.5 62.5z" />
<glyph unicode="&#x4e6;" horiz-adv-x="1742" d="M116 717q0 207 97.5 372.5t270.5 261t386 95.5t384 -94.5t269.5 -261t98.5 -373.5t-98.5 -374t-269.5 -261t-384 -94t-386 95t-270.5 261t-97.5 373zM266 717q0 -168 79 -304.5t217 -213t308 -76.5t307.5 76.5t215 213t77.5 304.5t-77.5 304t-215 213t-307.5 77t-308 -77 t-217 -213t-79 -304zM600 1686q0 37 25.5 62.5t62.5 25.5q35 0 61.5 -26t26.5 -62q0 -37 -25.5 -63t-62.5 -26t-62.5 25t-25.5 64zM965 1686q0 37 26.5 62.5t61.5 25.5q37 0 62.5 -26t25.5 -62q0 -39 -25.5 -64t-62.5 -25t-62.5 26t-25.5 63z" />
<glyph unicode="&#x4e7;" horiz-adv-x="1302" d="M102 539q0 158 72 282.5t196.5 194t280.5 69.5t281 -69.5t195.5 -194.5t70.5 -282q0 -158 -70.5 -283t-195.5 -195.5t-281 -70.5t-280.5 70.5t-196.5 195.5t-72 283zM250 539q0 -123 52 -219.5t143 -148.5t206 -52t206 52t142 148.5t51 219.5t-51 219t-142 148t-206 52 t-206 -52t-143 -148t-52 -219zM379 1380q0 37 25.5 62.5t62.5 25.5q35 0 61.5 -25.5t26.5 -62.5t-25.5 -62.5t-62.5 -25.5t-62.5 24.5t-25.5 63.5zM744 1380q0 37 26.5 62.5t61.5 25.5q37 0 62.5 -25.5t25.5 -62.5q0 -39 -25.5 -63.5t-62.5 -24.5t-62.5 25.5t-25.5 62.5z " />
<glyph unicode="&#x4e8;" horiz-adv-x="1742" d="M116 717q0 207 97.5 372.5t270.5 261t386 95.5t384 -94.5t269.5 -261t98.5 -373.5t-98.5 -374t-269.5 -261t-384 -94t-386 95t-270.5 261t-97.5 373zM166 656v123h1416v-123h-1416zM266 717q0 -168 79 -304.5t217 -213t308 -76.5t307.5 76.5t215 213t77.5 304.5 t-77.5 304t-215 213t-307.5 77t-308 -77t-217 -213t-79 -304z" />
<glyph unicode="&#x4e9;" horiz-adv-x="1323" d="M102 539q0 158 72 282.5t200 194t288 69.5q159 0 286 -69.5t200 -194.5t73 -282q0 -158 -73 -283t-200 -195.5t-286 -70.5q-160 0 -288 70.5t-200 195.5t-72 283zM244 487q16 -170 132 -274t286 -104q169 0 285 104t132 274h-835zM244 592h835q-18 170 -133 273.5 t-284 103.5q-170 0 -286 -103.5t-132 -273.5z" />
<glyph unicode="&#x4ea;" horiz-adv-x="1742" d="M116 717q0 207 97.5 372.5t270.5 261t386 95.5t384 -94.5t269.5 -261t98.5 -373.5t-98.5 -374t-269.5 -261t-384 -94t-386 95t-270.5 261t-97.5 373zM166 656v123h1416v-123h-1416zM266 717q0 -168 79 -304.5t217 -213t308 -76.5t307.5 76.5t215 213t77.5 304.5 t-77.5 304t-215 213t-307.5 77t-308 -77t-217 -213t-79 -304zM600 1686q0 37 25.5 62.5t62.5 25.5q35 0 61.5 -26t26.5 -62q0 -37 -25.5 -63t-62.5 -26t-62.5 25t-25.5 64zM965 1686q0 37 26.5 62.5t61.5 25.5q37 0 62.5 -26t25.5 -62q0 -39 -25.5 -64t-62.5 -25t-62.5 26 t-25.5 63z" />
<glyph unicode="&#x4eb;" horiz-adv-x="1323" d="M102 539q0 158 72 282.5t200 194t288 69.5q159 0 286 -69.5t200 -194.5t73 -282q0 -158 -73 -283t-200 -195.5t-286 -70.5q-160 0 -288 70.5t-200 195.5t-72 283zM244 487q16 -170 132 -274t286 -104q169 0 285 104t132 274h-835zM244 592h835q-18 170 -133 273.5 t-284 103.5q-170 0 -286 -103.5t-132 -273.5zM391 1380q0 37 25.5 62.5t62.5 25.5q35 0 61.5 -25.5t26.5 -62.5t-25.5 -62.5t-62.5 -25.5t-62.5 24.5t-25.5 63.5zM756 1380q0 37 26.5 62.5t61.5 25.5q37 0 62.5 -25.5t25.5 -62.5q0 -39 -25.5 -63.5t-62.5 -24.5t-62.5 25.5 t-25.5 62.5z" />
<glyph unicode="&#x4ec;" horiz-adv-x="1445" d="M72 199l94 96q170 -172 440 -172q152 0 277 70.5t201.5 194.5t86.5 280h-739v125h737q-16 150 -93 267.5t-199.5 184t-270.5 66.5q-270 0 -440 -172l-94 96q94 104 233 157.5t307 53.5q201 0 364 -94.5t256 -261t93 -373.5t-93 -374t-256 -261t-364 -94q-168 0 -307 53 t-233 158zM379 1686q0 37 25.5 62.5t62.5 25.5q35 0 61.5 -26t26.5 -62q0 -37 -25.5 -63t-62.5 -26t-62.5 25t-25.5 64zM744 1686q0 37 26.5 62.5t61.5 25.5q37 0 62.5 -26t25.5 -62q0 -39 -25.5 -64t-62.5 -25t-62.5 26t-25.5 63z" />
<glyph unicode="&#x4ed;" horiz-adv-x="1169" d="M61 152l86 86q137 -129 347 -129q117 0 212 49t155.5 137t70.5 197h-576v110h574q-23 162 -143.5 263.5t-292.5 101.5q-209 0 -347 -129l-86 84q78 80 191 121.5t248 41.5q162 0 292 -70.5t204.5 -195.5t74.5 -280q0 -156 -74.5 -282t-204.5 -197.5t-292 -71.5 q-135 0 -248 42t-191 122zM260 1380q0 37 25.5 62.5t62.5 25.5q35 0 61.5 -25.5t26.5 -62.5t-25.5 -62.5t-62.5 -25.5t-62.5 24.5t-25.5 63.5zM625 1380q0 37 26.5 62.5t61.5 25.5q37 0 62.5 -25.5t25.5 -62.5q0 -39 -25.5 -63.5t-62.5 -24.5t-62.5 25.5t-25.5 62.5z" />
<glyph unicode="&#x4ee;" horiz-adv-x="1392" d="M43 1434h162l500 -971l512 971h151l-651 -1207q-70 -129 -163 -191.5t-204 -62.5q-82 0 -176 39l43 123q74 -29 135 -29q141 0 232 154l41 70zM366 1628v96h631v-96h-631z" />
<glyph unicode="&#x4ef;" horiz-adv-x="1142" d="M-37 -309l67 108q82 -82 197 -82q74 0 126 41t97 140l47 104l-481 1075h152l405 -915l406 915h143l-539 -1206q-66 -152 -151.5 -215.5t-206.5 -63.5q-78 0 -145.5 25t-116.5 74zM225 1323v96h631v-96h-631z" />
<glyph unicode="&#x4f0;" horiz-adv-x="1392" d="M43 1434h162l500 -971l512 971h151l-651 -1207q-70 -129 -163 -191.5t-204 -62.5q-82 0 -176 39l43 123q74 -29 135 -29q141 0 232 154l41 70zM411 1686q0 37 25.5 62.5t62.5 25.5q35 0 61.5 -26t26.5 -62q0 -37 -25.5 -63t-62.5 -26t-62.5 25t-25.5 64zM776 1686 q0 37 26.5 62.5t61.5 25.5q37 0 62.5 -26t25.5 -62q0 -39 -25.5 -64t-62.5 -25t-62.5 26t-25.5 63z" />
<glyph unicode="&#x4f1;" horiz-adv-x="1142" d="M-37 -309l67 108q82 -82 197 -82q74 0 126 41t97 140l47 104l-481 1075h152l405 -915l406 915h143l-539 -1206q-66 -152 -151.5 -215.5t-206.5 -63.5q-78 0 -145.5 25t-116.5 74zM270 1380q0 37 25.5 62.5t62.5 25.5q35 0 61.5 -25.5t26.5 -62.5t-25.5 -62.5t-62.5 -25.5 t-62.5 24.5t-25.5 63.5zM635 1380q0 37 26.5 62.5t61.5 25.5q37 0 62.5 -25.5t25.5 -62.5q0 -39 -25.5 -63.5t-62.5 -24.5t-62.5 25.5t-25.5 62.5z" />
<glyph unicode="&#x4f2;" horiz-adv-x="1392" d="M43 1434h162l500 -971l512 971h151l-651 -1207q-70 -129 -163 -191.5t-204 -62.5q-82 0 -176 39l43 123q74 -29 135 -29q141 0 232 154l41 70zM450 1550l199 254h162l-232 -254h-129zM784 1550l197 254h161l-229 -254h-129z" />
<glyph unicode="&#x4f3;" horiz-adv-x="1142" d="M-37 -309l67 108q82 -82 197 -82q74 0 126 41t97 140l47 104l-481 1075h152l405 -915l406 915h143l-539 -1206q-66 -152 -151.5 -215.5t-206.5 -63.5q-78 0 -145.5 25t-116.5 74zM309 1245l199 254h162l-232 -254h-129zM643 1245l197 254h161l-229 -254h-129z" />
<glyph unicode="&#x4f4;" horiz-adv-x="1497" d="M121 961v473h149v-457q0 -166 104.5 -258t293.5 -92q215 0 438 102v705h147v-1434h-147v594q-233 -100 -453 -100q-252 0 -392 122.5t-140 344.5zM420 1686q0 37 25.5 62.5t62.5 25.5q35 0 61.5 -26t26.5 -62q0 -37 -25.5 -63t-62.5 -26t-62.5 25t-25.5 64zM785 1686 q0 37 26.5 62.5t61.5 25.5q37 0 62.5 -26t25.5 -62q0 -39 -25.5 -64t-62.5 -25t-62.5 26t-25.5 63z" />
<glyph unicode="&#x4f5;" horiz-adv-x="1226" d="M96 723v354h146v-346q0 -121 77.5 -183.5t215.5 -62.5q152 0 339 80v512h146v-1077h-146v449q-186 -82 -366 -82q-195 0 -303.5 89t-108.5 267zM282 1380q0 37 25.5 62.5t62.5 25.5q35 0 61.5 -25.5t26.5 -62.5t-25.5 -62.5t-62.5 -25.5t-62.5 24.5t-25.5 63.5zM647 1380 q0 37 26.5 62.5t61.5 25.5q37 0 62.5 -25.5t25.5 -62.5q0 -39 -25.5 -63.5t-62.5 -24.5t-62.5 25.5t-25.5 62.5z" />
<glyph unicode="&#x4f6;" horiz-adv-x="1171" d="M241 0v131h375v-453h-141v322h-234zM242 0v1434h911v-131h-764l2 -1303h-149z" />
<glyph unicode="&#x4f7;" horiz-adv-x="972" d="M207 0v127h319v-363h-137v236h-182zM207 0v1077h762v-129h-617v-948h-145z" />
<glyph unicode="&#x4f8;" horiz-adv-x="2002" d="M242 0v1434h149v-512h451q254 0 388 -115t134 -336q0 -231 -142.5 -351t-410.5 -120h-569zM391 121h416q199 0 302 88t103 260q0 330 -405 330h-416v-678zM733 1686q0 37 25.5 62.5t62.5 25.5q35 0 61.5 -26t26.5 -62q0 -37 -25.5 -63t-62.5 -26t-62.5 25t-25.5 64z M1098 1686q0 37 26.5 62.5t61.5 25.5q37 0 62.5 -26t25.5 -62q0 -39 -25.5 -64t-62.5 -25t-62.5 26t-25.5 63zM1612 0v1434h149v-1434h-149z" />
<glyph unicode="&#x4f9;" horiz-adv-x="1607" d="M207 0v1077h145v-377l307 -4q203 -2 309.5 -90t106.5 -254q0 -172 -114.5 -264t-327.5 -90zM352 113l273 -4q149 -3 226 59.5t77 183.5q0 119 -76 176.5t-227 59.5l-273 4v-479zM565 1380q0 37 25.5 62.5t62.5 25.5q35 0 61.5 -25.5t26.5 -62.5t-25.5 -62.5t-62.5 -25.5 t-62.5 24.5t-25.5 63.5zM930 1380q0 37 26.5 62.5t61.5 25.5q37 0 62.5 -25.5t25.5 -62.5q0 -39 -25.5 -63.5t-62.5 -24.5t-62.5 25.5t-25.5 62.5zM1255 0v1077h146v-1077h-146z" />
<glyph unicode="&#x4fa;" horiz-adv-x="1247" d="M72 608v115h219v711h913v-131h-764v-580h617v-115h-617v-477h215v-233q0 -141 -85 -223.5t-222 -82.5q-133 0 -235 72l49 107q68 -53 164 -54q86 0 135 51.5t49 149.5v82h-219v608h-219z" />
<glyph unicode="&#x4fb;" horiz-adv-x="978" d="M27 -336l47 107q68 -55 166 -56q88 0 134 52.5t46 154.5v78h-172v455h-166v106h166v516h682v-129h-537v-387h453v-106h-453v-328h172v-221q0 -143 -81 -228.5t-228 -85.5q-68 0 -129 18.5t-100 53.5z" />
<glyph unicode="&#x4fc;" horiz-adv-x="1333" d="M41 0l537 737l-502 697h174l422 -584l420 584h165l-499 -691l90 -112q147 -186 230 -300t137.5 -225.5t54.5 -205.5q0 -143 -88 -226.5t-224 -83.5q-115 0 -227 60l41 108q82 -45 158 -45q82 0 130 50.5t48 142.5q0 84 -59.5 197.5t-145.5 227t-235 298.5l-451 -629h-176 z" />
<glyph unicode="&#x4fd;" horiz-adv-x="1073" d="M35 0l420 553l-396 524h164l316 -418l319 418h162l-395 -518q163 -194 250.5 -309t128 -203t40.5 -168q0 -129 -86 -208t-221 -79q-113 0 -227 64l47 111q80 -51 162 -52q80 0 130 49.5t50 122.5q0 88 -78 206t-280 356l-340 -449h-166z" />
<glyph unicode="&#x4fe;" horiz-adv-x="1368" d="M66 0l485 678h-350v115h356l-455 641h174l408 -568l408 568h176l-457 -641h340v-115h-326l482 -678h-179l-444 616l-442 -616h-176z" />
<glyph unicode="&#x4ff;" horiz-adv-x="1136" d="M59 0l379 492h-248v106h254l-362 479h168l319 -422l326 422h158l-369 -479h264v-106h-246l375 -492h-172l-338 449l-344 -449h-164z" />
<glyph unicode="&#x2000;" horiz-adv-x="1000" />
<glyph unicode="&#x2001;" horiz-adv-x="2000" />
<glyph unicode="&#x2002;" horiz-adv-x="1000" />
<glyph unicode="&#x2003;" horiz-adv-x="2000" />
<glyph unicode="&#x2004;" horiz-adv-x="666" />
<glyph unicode="&#x2005;" horiz-adv-x="500" />
<glyph unicode="&#x2006;" horiz-adv-x="333" />
<glyph unicode="&#x2007;" horiz-adv-x="333" />
<glyph unicode="&#x2008;" horiz-adv-x="250" />
<glyph unicode="&#x2009;" horiz-adv-x="400" />
<glyph unicode="&#x200a;" horiz-adv-x="111" />
<glyph unicode="&#x2010;" horiz-adv-x="782" d="M123 492v126h536v-126h-536z" />
<glyph unicode="&#x2011;" horiz-adv-x="782" d="M123 492v126h536v-126h-536z" />
<glyph unicode="&#x2012;" horiz-adv-x="782" d="M123 492v126h536v-126h-536z" />
<glyph unicode="&#x2013;" horiz-adv-x="1024" d="M0 504v104h1024v-104h-1024z" />
<glyph unicode="&#x2014;" horiz-adv-x="2048" d="M0 504v104h2048v-104h-2048z" />
<glyph unicode="&#x2018;" horiz-adv-x="434" d="M109 1120q0 25 5 48.5t21 68.5l86 283h98l-69 -295q35 -11 54.5 -38.5t19.5 -66.5q0 -49 -31 -79.5t-76 -30.5q-49 0 -78.5 31.5t-29.5 78.5z" />
<glyph unicode="&#x2019;" horiz-adv-x="434" d="M111 1419q0 49 30.5 80t77.5 31t78 -32t31 -79q0 -25 -7.5 -52.5t-19.5 -63.5l-88 -283h-98l71 295q-35 10 -55 37.5t-20 66.5z" />
<glyph unicode="&#x201a;" horiz-adv-x="434" d="M111 102q0 47 30.5 79t77.5 32t78 -31.5t31 -79.5q0 -25 -7.5 -53.5t-21.5 -64.5l-86 -283h-98l69 297q-33 10 -53 37.5t-20 66.5z" />
<glyph unicode="&#x201c;" horiz-adv-x="782" d="M109 1120q0 25 5 48.5t21 68.5l86 283h98l-69 -295q35 -11 54.5 -38.5t19.5 -66.5q0 -49 -31 -79.5t-76 -30.5q-49 0 -78.5 31.5t-29.5 78.5zM457 1120q0 25 5 48.5t21 68.5l86 283h98l-69 -295q35 -11 54.5 -38.5t19.5 -66.5q0 -49 -31 -79.5t-76 -30.5 q-49 0 -78.5 31.5t-29.5 78.5z" />
<glyph unicode="&#x201d;" horiz-adv-x="782" d="M111 1419q0 49 30.5 80t77.5 31t78 -32t31 -79q0 -25 -7.5 -52.5t-19.5 -63.5l-88 -283h-98l71 295q-35 10 -55 37.5t-20 66.5zM459 1419q0 49 30.5 80t77.5 31t78 -32t31 -79q0 -25 -7.5 -52.5t-19.5 -63.5l-88 -283h-98l71 295q-35 10 -55 37.5t-20 66.5z" />
<glyph unicode="&#x201e;" horiz-adv-x="782" d="M111 102q0 47 30.5 79t77.5 32t78 -31.5t31 -79.5q0 -25 -7.5 -53.5t-21.5 -64.5l-86 -283h-98l69 297q-33 10 -53 37.5t-20 66.5zM459 102q0 47 30.5 79t77.5 32t78 -31.5t31 -79.5q0 -25 -7.5 -53.5t-21.5 -64.5l-86 -283h-98l69 297q-33 10 -53 37.5t-20 66.5z" />
<glyph unicode="&#x2022;" horiz-adv-x="604" d="M150 561q0 66 45 110t108 44t108.5 -44t45.5 -110t-45 -112t-109 -46q-63 0 -108 45.5t-45 112.5z" />
<glyph unicode="&#x2026;" horiz-adv-x="1325" d="M109 102q0 47 31.5 79t76.5 32t78 -31.5t33 -79.5q0 -47 -33 -79.5t-78 -32.5t-76.5 32.5t-31.5 79.5zM553 102q0 47 31.5 79t76.5 32t78 -31.5t33 -79.5q0 -47 -33 -79.5t-78 -32.5t-76.5 32.5t-31.5 79.5zM1000 102q0 47 31.5 79t76.5 32t78 -31.5t33 -79.5 q0 -47 -33 -79.5t-78 -32.5t-76.5 32.5t-31.5 79.5z" />
<glyph unicode="&#x202f;" horiz-adv-x="400" />
<glyph unicode="&#x2039;" horiz-adv-x="612" d="M102 539l297 389h136l-291 -389l291 -387h-136z" />
<glyph unicode="&#x203a;" horiz-adv-x="612" d="M78 152l291 387l-291 389h135l297 -389l-297 -387h-135z" />
<glyph unicode="&#x205f;" horiz-adv-x="500" />
<glyph unicode="&#x20ac;" horiz-adv-x="1642" d="M61 530v91h222q-6 47 -7 96q0 51 7 96h-222v90h238q39 160 142.5 283t255 191.5t329.5 68.5q162 0 297 -53.5t231 -155.5l-98 -96q-168 170 -422 170q-209 0 -365.5 -113t-211.5 -295h702v-90h-725q-6 -45 -6 -96q0 -49 6 -96h725v-91h-702q55 -182 211.5 -294.5 t365.5 -112.5q256 0 422 172l98 -96q-96 -104 -231 -157.5t-297 -53.5q-178 0 -329.5 68.5t-255 191.5t-142.5 282h-238z" />
<glyph unicode="&#x20bd;" horiz-adv-x="1513" d="M61 266v90h215v1078h537q276 0 431 -124t155 -352q0 -229 -154.5 -353t-431.5 -124h-385v-125h461v-90h-461v-266h-152v266h-215zM428 610h387q209 0 320.5 90.5t111.5 255.5q0 166 -111.5 256.5t-320.5 90.5h-387v-693z" />
<glyph unicode="&#x2116;" horiz-adv-x="2457" d="M233 0v1434h125l924 -1164v1164h150v-1434h-125l-922 1163v-1163h-152zM1634 1118q0 94 46 168t127 116t182 42q100 0 181 -42t127 -116t46 -168t-46 -169t-127 -116.5t-181 -41.5q-101 0 -182 41.5t-127 116.5t-46 169zM1675 512v102h627v-102h-627zM1741 1118 q0 -104 68.5 -169.5t179.5 -65.5t179 65.5t68 169.5t-69.5 170t-177.5 66q-109 0 -178.5 -65.5t-69.5 -170.5z" />
<glyph unicode="&#x2122;" horiz-adv-x="2091" d="M8 1339v95h750v-95h-318v-755h-112v755h-320zM889 584v850h92l393 -615l391 615h90l3 -850h-107l-2 655l-350 -551h-51l-351 539v-643h-108z" />
<glyph unicode="&#x2248;" horiz-adv-x="1177" d="M127 332q4 152 72.5 231.5t181.5 79.5q70 0 121 -29.5t121 -87.5q53 -47 90 -69.5t80 -22.5q72 0 113.5 53.5t45.5 143.5h99q-4 -150 -73 -229.5t-181 -79.5q-70 0 -121 29.5t-121 86.5q-55 47 -91 68.5t-79 21.5q-72 0 -114 -53t-46 -143h-98zM127 803q4 150 72.5 229.5 t181.5 79.5q70 0 121 -29.5t121 -87.5q53 -47 90 -69.5t80 -22.5q72 0 113.5 53.5t45.5 145.5h99q-4 -152 -73 -231.5t-181 -79.5q-70 0 -121 29.5t-121 86.5q-55 47 -91 68.5t-79 21.5q-72 0 -114 -52t-46 -142h-98z" />
<glyph unicode="&#x25fc;" horiz-adv-x="1075" d="M0 0v1075h1075v-1075h-1075z" />
</font>
</defs>
</svg>
